<?xml version="1.0" encoding="utf-8"?>
<!-- Generator: Adobe Illustrator 19.0.0, SVG Export Plug-In . SVG Version: 6.00 Build 0)  -->
<svg version="1.1" id="Layer_1" xmlns="http://www.w3.org/2000/svg" xmlns:xlink="http://www.w3.org/1999/xlink" x="0px" y="0px"
	 viewBox="131 -131 512 512" style="enable-background:new 131 -131 512 512;" xml:space="preserve">
<g id="XMLID_2_">
	<path id="XMLID_4_" fill="#FCEBCD" d="M643,18.9c0,4.7-1.9,8.4-5.6,12.1L399.1,270.2c-3.7,3.7-7.4,4.7-12.1,4.7s-8.4-1.9-12.1-5.6L136.6,31
		c-3.7-3.7-5.6-7.4-5.6-12.1s1.9-8.4,5.6-12.1l26.1-26.1c3.7-3.7,7.4-5.6,12.1-5.6s8.4,1.9,12.1,5.6L387,183.6l202-202
		c3.7-3.7,7.4-5.6,12.1-5.6c4.7,0,8.4,1.9,12.1,5.6l26.1,26.1C641.1,10.5,643,15.2,643,18.9z"/>
</g>
</svg>
