<?xml version="1.0" standalone="no"?>
<!DOCTYPE svg PUBLIC "-//W3C//DTD SVG 20010904//EN"
 "http://www.w3.org/TR/2001/REC-SVG-20010904/DTD/svg10.dtd">
<svg version="1.0" xmlns="http://www.w3.org/2000/svg"
 width="127.000000pt" height="326.000000pt" viewBox="0 0 127.000000 326.000000"
 preserveAspectRatio="xMidYMid meet">

<g transform="translate(0.000000,326.000000) scale(0.100000,-0.100000)"
fill="#000000" stroke="none">
<path d="M930 3080 c0 -5 5 -10 11 -10 5 0 7 5 4 10 -3 6 -8 10 -11 10 -2 0
-4 -4 -4 -10z"/>
<path fill="#FCEBCD" d="M625 3070 c3 -5 8 -10 11 -10 2 0 4 5 4 10 0 6 -5 10 -11 10 -5 0 -7
-4 -4 -10z"/>
<path fill="#FCEBCD" d="M870 3070 c0 -5 5 -10 11 -10 5 0 7 5 4 10 -3 6 -8 10 -11 10 -2 0
-4 -4 -4 -10z"/>
<path fill="#FCEBCD" d="M720 3059 c0 -5 5 -7 10 -4 6 3 10 8 10 11 0 2 -4 4 -10 4 -5 0 -10
-5 -10 -11z"/>
<path fill="#FCEBCD" d="M840 3060 c0 -5 5 -10 10 -10 6 0 10 5 10 10 0 6 -4 10 -10 10 -5 0
-10 -4 -10 -10z"/>
<path fill="#FCEBCD" d="M660 3050 c0 -5 5 -10 11 -10 5 0 7 5 4 10 -3 6 -8 10 -11 10 -2 0
-4 -4 -4 -10z"/>
<path fill="#FCEBCD" d="M693 3046 c4 -9 -4 -16 -25 -20 -21 -4 -28 -10 -25 -21 4 -8 2 -17
-3 -20 -4 -3 -11 8 -15 25 -9 39 -23 39 -17 0 2 -18 0 -30 -7 -30 -6 0 -8 7
-5 15 4 8 1 15 -5 15 -6 0 -11 -9 -11 -20 0 -12 -7 -20 -16 -20 -13 0 -14 -3
-5 -14 8 -9 8 -16 2 -20 -5 -3 -12 7 -16 24 -4 16 -10 30 -15 30 -4 0 -1 -33
6 -72 8 -40 14 -74 14 -74 0 -1 -9 -4 -20 -7 -13 -3 -20 0 -20 9 0 8 -5 14
-11 14 -6 0 -9 -7 -5 -15 3 -8 2 -15 -3 -15 -5 0 -11 9 -14 20 -4 15 0 20 13
20 13 0 17 5 13 20 -4 15 0 20 13 20 12 0 15 3 8 10 -5 5 -19 7 -32 3 -17 -4
-20 -9 -12 -18 7 -8 7 -15 1 -19 -5 -3 -12 7 -16 24 -4 16 -10 30 -15 30 -4 0
-1 -33 6 -72 8 -40 14 -74 14 -74 0 -1 -9 -4 -20 -7 -13 -3 -20 0 -20 9 0 8
-5 14 -11 14 -6 0 -9 -7 -5 -15 3 -8 1 -15 -4 -15 -5 0 -12 11 -16 25 -3 14
-10 25 -14 25 -4 0 1 -39 11 -86 11 -48 17 -89 14 -92 -3 -3 -5 2 -5 11 0 9
-5 17 -11 17 -6 0 -9 -7 -5 -15 3 -8 2 -15 -3 -15 -9 0 -21 34 -21 62 0 12 5
16 18 11 13 -4 14 -3 6 6 -6 6 -18 9 -27 5 -18 -7 -17 -28 9 -143 8 -35 13
-66 9 -69 -3 -3 -5 2 -5 11 0 10 -5 17 -11 17 -6 0 -9 -7 -6 -15 4 -8 2 -17
-2 -20 -5 -2 -11 9 -15 25 -3 17 -10 30 -15 30 -6 0 -6 -12 -1 -30 7 -23 5
-30 -6 -30 -8 0 -14 -4 -14 -10 0 -6 15 -8 36 -4 25 4 34 2 29 -5 -3 -6 -2
-11 4 -11 5 0 12 8 14 18 4 14 5 15 6 1 1 -15 28 -30 59 -33 7 -1 17 -8 22
-16 8 -12 10 -11 10 5 1 15 4 13 14 -10 9 -22 19 -29 41 -30 24 0 30 -6 37
-32 5 -18 13 -35 18 -38 5 -3 7 0 4 8 -3 8 2 17 10 20 24 9 19 27 -6 28 -27 1
-16 5 35 14 25 4 37 11 38 23 0 10 3 12 6 4 3 -9 12 -7 30 8 14 11 43 23 65
26 28 5 38 11 38 25 0 11 6 19 14 19 9 0 12 7 9 20 -3 12 0 20 7 20 9 0 11 12
7 44 -5 37 -4 45 12 49 15 4 20 -3 25 -31 3 -20 3 -38 1 -41 -3 -2 -5 3 -5 12
0 9 -5 17 -10 17 -10 0 -9 -18 6 -82 8 -41 25 -34 18 7 -4 28 -2 35 12 35 13
0 14 3 5 14 -8 10 -9 16 -1 21 5 3 10 -1 10 -9 0 -9 5 -16 10 -16 10 0 9 18
-5 73 -5 18 -12 26 -21 23 -8 -3 -14 1 -14 10 0 8 4 13 9 9 5 -3 12 -1 16 5 4
6 10 8 15 5 17 -11 40 7 36 29 -14 67 -26 129 -26 132 0 2 -5 4 -11 4 -6 0 -9
-7 -5 -15 3 -8 2 -15 -3 -15 -9 0 -21 33 -21 58 0 6 4 12 10 12 5 0 7 -7 4
-15 -4 -9 0 -15 9 -15 10 0 13 7 10 20 -4 15 0 20 13 20 13 0 15 3 7 11 -6 6
-9 18 -6 25 3 8 0 14 -6 14 -6 0 -11 -8 -11 -19 0 -10 -9 -21 -20 -24 -13 -3
-20 0 -20 9 0 8 -5 14 -11 14 -6 0 -9 -7 -5 -15 3 -8 1 -15 -4 -15 -5 0 -14
25 -20 55 -6 30 -16 55 -22 55 -5 0 -8 -7 -4 -15 3 -9 0 -15 -9 -15 -9 0 -12
6 -9 15 4 8 1 15 -6 15 -8 0 -10 -10 -6 -34 5 -28 3 -34 -13 -39 -16 -4 -21 1
-26 24 -9 40 -26 37 -20 -3 l5 -33 -14 35 c-14 36 -12 55 5 45 5 -4 9 -1 9 5
0 7 -7 10 -15 6 -9 -3 -15 0 -15 9 0 8 -5 15 -11 15 -6 0 -9 -6 -6 -14z m9
-46 c10 -23 9 -60 -2 -60 -5 0 -7 7 -4 15 4 8 1 15 -5 15 -6 0 -11 -4 -11 -10
0 -5 -8 -6 -17 -3 -12 5 -15 2 -10 -10 3 -9 2 -17 -3 -17 -6 0 -10 9 -10 20 0
11 6 20 14 20 9 0 12 8 9 24 -4 19 -1 24 14 23 10 -1 21 -9 25 -17z m137 -67
c1 -13 -3 -23 -9 -23 -5 0 -7 7 -4 15 4 8 2 15 -4 15 -6 0 -13 -6 -15 -12 -3
-8 -6 -6 -6 5 -1 9 6 17 15 17 13 0 14 3 5 13 -6 8 -8 17 -4 21 9 9 21 -21 22
-51z m-219 21 c0 -8 -5 -12 -10 -9 -6 4 -8 11 -5 16 9 14 15 11 15 -7z m-9
-27 c19 -5 27 -37 9 -37 -5 0 -7 7 -4 15 4 8 1 15 -5 15 -6 0 -11 -10 -11 -22
0 -34 -9 -16 -14 28 -3 21 -2 32 0 23 3 -10 14 -19 25 -22z m172 -7 c-3 -11
-7 -20 -9 -20 -2 0 -4 9 -4 20 0 11 4 20 9 20 5 0 7 -9 4 -20z m-33 0 c0 -5
-2 -10 -4 -10 -3 0 -8 5 -11 10 -3 6 -1 10 4 10 6 0 11 -4 11 -10z m-177 -20
c3 -11 1 -20 -4 -20 -5 0 -9 9 -9 20 0 11 2 20 4 20 2 0 6 -9 9 -20z m307 -6
c0 -8 -5 -12 -10 -9 -6 4 -8 11 -5 16 9 14 15 11 15 -7z m-153 -16 c-3 -8 -6
-5 -6 6 -1 11 2 17 5 13 3 -3 4 -12 1 -19z m31 -9 c-3 -8 -7 -3 -11 10 -4 17
-3 21 5 13 5 -5 8 -16 6 -23z m92 20 c0 -4 -9 -9 -20 -12 -12 -3 -20 0 -20 7
0 6 9 12 20 12 11 0 20 -3 20 -7z m7 -41 c-3 -8 -6 -5 -6 6 -1 11 2 17 5 13 3
-3 4 -12 1 -19z m33 10 c0 -7 3 -23 6 -34 4 -16 0 -23 -14 -26 -14 -4 -22 0
-25 14 -5 16 -3 17 9 7 8 -6 18 -9 21 -5 4 4 3 10 -2 14 -13 9 -16 42 -4 42 5
0 9 -6 9 -12z m-56 -12 c-3 -8 -1 -24 6 -35 6 -12 7 -21 2 -21 -6 0 -12 10
-16 23 -8 32 -7 47 4 47 5 0 7 -6 4 -14z m-157 -28 c-3 -8 -6 -5 -6 6 -1 11 2
17 5 13 3 -3 4 -12 1 -19z m73 18 c0 -3 -4 -8 -10 -11 -5 -3 -10 -1 -10 4 0 6
5 11 10 11 6 0 10 -2 10 -4z m-175 -36 c8 0 17 -4 20 -10 3 -6 -1 -7 -9 -4
-12 4 -16 0 -17 -17 -1 -17 -3 -19 -6 -6 -2 9 -8 17 -13 17 -5 0 -11 -8 -13
-17 -4 -14 -5 -12 -6 5 -1 13 5 22 13 22 8 0 13 8 11 18 -1 9 0 11 2 5 3 -7
11 -13 18 -13z m15 20 c0 -5 -2 -10 -4 -10 -3 0 -8 5 -11 10 -3 6 -1 10 4 10
6 0 11 -4 11 -10z m346 -15 c1 -8 5 -32 9 -53 5 -33 4 -38 -14 -38 -12 0 -21
6 -21 13 0 7 -5 13 -11 13 -6 0 -9 -7 -5 -15 3 -8 2 -15 -3 -15 -8 0 -21 33
-21 56 0 7 9 14 20 17 13 3 20 0 20 -9 0 -8 4 -14 10 -14 11 0 9 28 -3 46 -3
6 -4 14 0 18 8 8 16 0 19 -19z m-439 -7 c-3 -8 -6 -5 -6 6 -1 11 2 17 5 13 3
-3 4 -12 1 -19z m128 12 c3 -5 1 -10 -4 -10 -6 0 -11 5 -11 10 0 6 2 10 4 10
3 0 8 -4 11 -10z m152 -12 c-3 -8 -6 -5 -6 6 -1 11 2 17 5 13 3 -3 4 -12 1
-19z m33 -3 c0 -8 -4 -15 -10 -15 -5 0 -7 7 -4 15 4 8 8 15 10 15 2 0 4 -7 4
-15z m-333 -37 c-3 -8 -6 -5 -6 6 -1 11 2 17 5 13 3 -3 4 -12 1 -19z m33 2 c0
-11 -2 -20 -4 -20 -2 0 -6 9 -9 20 -3 11 -1 20 4 20 5 0 9 -9 9 -20z m278 -11
c-3 -8 -7 -3 -11 10 -4 17 -3 21 5 13 5 -5 8 -16 6 -23z m-368 5 c0 -8 -5 -12
-10 -9 -6 4 -8 11 -5 16 9 14 15 11 15 -7z m400 6 c0 -5 -5 -10 -11 -10 -5 0
-7 5 -4 10 3 6 8 10 11 10 2 0 4 -4 4 -10z m-93 -22 c-3 -8 -6 -5 -6 6 -1 11
2 17 5 13 3 -3 4 -12 1 -19z m-264 -18 c3 -11 2 -20 -3 -20 -4 0 -10 9 -13 20
-3 11 -2 20 3 20 4 0 10 -9 13 -20z m25 -11 c-3 -8 -7 -3 -11 10 -4 17 -3 21
5 13 5 -5 8 -16 6 -23z m59 9 c-3 -8 -6 -5 -6 6 -1 11 2 17 5 13 3 -3 4 -12 1
-19z m43 18 c0 -3 -4 -8 -10 -11 -5 -3 -10 -1 -10 4 0 6 5 11 10 11 6 0 10 -2
10 -4z m16 -31 c-7 -5 -15 -17 -19 -25 -4 -10 -6 -8 -6 8 -1 13 5 22 14 22 9
0 12 6 9 18 -5 14 -4 15 5 2 8 -11 7 -18 -3 -25z m229 -43 c-3 -3 -5 2 -5 11
0 10 -8 17 -20 17 -25 0 -27 37 -2 42 12 3 19 -5 25 -31 4 -19 5 -36 2 -39z
m25 52 c0 -8 -4 -14 -8 -14 -4 0 -8 9 -8 19 0 11 4 17 8 15 4 -3 8 -12 8 -20z
m-430 -4 c0 -11 -4 -20 -8 -20 -4 0 -8 9 -8 20 0 11 4 20 8 20 4 0 8 -9 8 -20z
m90 10 c0 -5 -5 -10 -11 -10 -5 0 -7 5 -4 10 3 6 8 10 11 10 2 0 4 -4 4 -10z
m233 -75 c6 -33 5 -36 -3 -16 -6 14 -12 32 -13 40 -1 9 -6 21 -10 27 -3 6 -3
14 0 18 9 8 18 -16 26 -69z m17 65 c0 -5 -2 -10 -4 -10 -3 0 -8 5 -11 10 -3 6
-1 10 4 10 6 0 11 -4 11 -10z m-243 -32 c-3 -8 -6 -5 -6 6 -1 11 2 17 5 13 3
-3 4 -12 1 -19z m-17 8 c0 -3 -4 -8 -10 -11 -5 -3 -10 -1 -10 4 0 6 5 11 10
11 6 0 10 -2 10 -4z m270 -22 c0 -8 -4 -14 -8 -14 -4 0 -8 9 -8 19 0 11 4 17
8 15 4 -3 8 -12 8 -20z m90 16 c0 -5 -5 -10 -11 -10 -5 0 -7 5 -4 10 3 6 8 10
11 10 2 0 4 -4 4 -10z m-153 -22 c-3 -8 -6 -5 -6 6 -1 11 2 17 5 13 3 -3 4
-12 1 -19z m98 12 c3 -5 1 -10 -4 -10 -6 0 -11 5 -11 10 0 6 2 10 4 10 3 0 8
-4 11 -10z m-155 -10 c0 -5 -5 -10 -11 -10 -5 0 -7 5 -4 10 3 6 8 10 11 10 2
0 4 -4 4 -10z m30 0 c0 -5 -2 -10 -4 -10 -3 0 -8 5 -11 10 -3 6 -1 10 4 10 6
0 11 -4 11 -10z m-153 -25 c1 -15 0 -15 -3 -3 -3 9 -13 19 -22 22 -12 3 -12 4
3 3 12 -1 21 -10 22 -22z m373 5 c0 -11 -4 -20 -8 -20 -4 0 -8 9 -8 20 0 11 4
20 8 20 4 0 8 -9 8 -20z m-463 -12 c-3 -8 -6 -5 -6 6 -1 11 2 17 5 13 3 -3 4
-12 1 -19z m31 -9 c-3 -8 -7 -3 -11 10 -4 17 -3 21 5 13 5 -5 8 -16 6 -23z
m-91 -1 c-3 -8 -6 -5 -6 6 -1 11 2 17 5 13 3 -3 4 -12 1 -19z m412 -20 c1 -5
-6 -8 -14 -8 -8 0 -15 -5 -15 -11 0 -6 7 -9 15 -5 8 3 15 1 15 -5 0 -6 -8 -9
-17 -7 -24 4 -30 38 -8 38 14 0 15 3 6 13 -6 8 -8 17 -4 21 7 6 20 -17 22 -36z
m29 -19 c-3 -8 -7 -3 -11 10 -4 17 -3 21 5 13 5 -5 8 -16 6 -23z m-430 -10
c-3 -8 -7 -3 -11 10 -4 17 -3 21 5 13 5 -5 8 -16 6 -23z"/>
<path fill="#FCEBCD" d="M670 2990 c0 -5 7 -10 16 -10 8 0 12 5 9 10 -3 6 -10 10 -16 10 -5 0
-9 -4 -9 -10z"/>
<path fill="#FCEBCD" d="M880 2760 c0 -5 5 -10 10 -10 6 0 10 5 10 10 0 6 -4 10 -10 10 -5 0
-10 -4 -10 -10z"/>
<path fill="#FCEBCD" d="M920 2740 c0 -5 5 -10 10 -10 6 0 10 5 10 10 0 6 -4 10 -10 10 -5 0
-10 -4 -10 -10z"/>
<path fill="#FCEBCD" d="M800 2710 c0 -5 5 -10 10 -10 6 0 10 5 10 10 0 6 -4 10 -10 10 -5 0
-10 -4 -10 -10z"/>
<path fill="#FCEBCD" d="M815 3050 c3 -5 8 -10 11 -10 2 0 4 5 4 10 0 6 -5 10 -11 10 -5 0 -7
-4 -4 -10z"/>
<path fill="#FCEBCD" d="M630 3040 c0 -5 5 -10 10 -10 6 0 10 5 10 10 0 6 -4 10 -10 10 -5 0
-10 -4 -10 -10z"/>
<path fill="#FCEBCD" d="M750 3040 c0 -5 5 -10 10 -10 6 0 10 5 10 10 0 6 -4 10 -10 10 -5 0
-10 -4 -10 -10z"/>
<path fill="#FCEBCD" d="M880 3040 c0 -5 5 -10 10 -10 6 0 10 5 10 10 0 6 -4 10 -10 10 -5 0
-10 -4 -10 -10z"/>
<path fill="#FCEBCD" d="M913 3030 c1 -11 5 -20 9 -20 3 0 6 9 5 20 -1 11 -5 20 -9 20 -3 0
-6 -9 -5 -20z"/>
<path fill="#FCEBCD" d="M570 3030 c0 -5 5 -10 11 -10 5 0 7 5 4 10 -3 6 -8 10 -11 10 -2 0
-4 -4 -4 -10z"/>
<path fill="#FCEBCD" d="M850 3030 c0 -5 5 -10 10 -10 6 0 10 5 10 10 0 6 -4 10 -10 10 -5 0
-10 -4 -10 -10z"/>
<path fill="#FCEBCD" d="M970 3030 c0 -5 5 -10 10 -10 6 0 10 5 10 10 0 6 -4 10 -10 10 -5 0
-10 -4 -10 -10z"/>
<path fill="#FCEBCD" d="M540 3020 c0 -5 5 -10 10 -10 6 0 10 5 10 10 0 6 -4 10 -10 10 -5 0
-10 -4 -10 -10z"/>
<path fill="#FCEBCD" d="M945 3020 c3 -5 8 -10 11 -10 2 0 4 5 4 10 0 6 -5 10 -11 10 -5 0 -7
-4 -4 -10z"/>
<path fill="#FCEBCD" d="M515 3010 c3 -5 8 -10 11 -10 2 0 4 5 4 10 0 6 -5 10 -11 10 -5 0 -7
-4 -4 -10z"/>
<path fill="#FCEBCD" d="M760 3010 c0 -5 5 -10 10 -10 6 0 10 5 10 10 0 6 -4 10 -10 10 -5 0
-10 -4 -10 -10z"/>
<path fill="#FCEBCD" d="M885 3010 c3 -5 8 -10 11 -10 2 0 4 5 4 10 0 6 -5 10 -11 10 -5 0 -7
-4 -4 -10z"/>
<path fill="#FCEBCD" d="M1010 3010 c0 -5 5 -10 11 -10 5 0 7 5 4 10 -3 6 -8 10 -11 10 -2 0
-4 -4 -4 -10z"/>
<path fill="#FCEBCD" d="M855 3000 c3 -5 11 -10 16 -10 6 0 7 5 4 10 -3 6 -11 10 -16 10 -6 0
-7 -4 -4 -10z"/>
<path fill="#FCEBCD" d="M980 3000 c0 -5 5 -10 10 -10 6 0 10 5 10 10 0 6 -4 10 -10 10 -5 0
-10 -4 -10 -10z"/>
<path fill="#FCEBCD" d="M550 2990 c0 -5 5 -10 10 -10 6 0 10 5 10 10 0 6 -4 10 -10 10 -5 0
-10 -4 -10 -10z"/>
<path fill="#FCEBCD" d="M920 2990 c0 -5 5 -10 11 -10 5 0 7 5 4 10 -3 6 -8 10 -11 10 -2 0
-4 -4 -4 -10z"/>
<path fill="#FCEBCD" d="M955 2981 c6 -21 9 -34 20 -99 6 -38 5 -41 -12 -36 -13 5 -15 4 -7
-5 8 -8 18 -9 36 -2 14 5 29 7 32 4 3 -4 6 6 6 20 0 15 -5 27 -10 27 -6 0 -10
-6 -8 -12 2 -7 -2 -14 -7 -15 -5 -2 -10 3 -10 10 -2 35 -28 127 -36 127 -6 0
-8 -9 -4 -19z"/>
<path fill="#FCEBCD" d="M770 2980 c0 -5 5 -10 10 -10 6 0 10 5 10 10 0 6 -4 10 -10 10 -5 0
-10 -4 -10 -10z"/>
<path fill="#FCEBCD" d="M890 2980 c0 -5 5 -10 10 -10 6 0 10 5 10 10 0 6 -4 10 -10 10 -5 0
-10 -4 -10 -10z"/>
<path fill="#FCEBCD" d="M1015 2980 c3 -5 8 -10 11 -10 2 0 4 5 4 10 0 6 -5 10 -11 10 -5 0
-7 -4 -4 -10z"/>
<path fill="#FCEBCD" d="M460 2970 c0 -5 5 -10 10 -10 6 0 10 5 10 10 0 6 -4 10 -10 10 -5 0
-10 -4 -10 -10z"/>
<path fill="#FCEBCD" d="M860 2970 c0 -5 5 -10 10 -10 6 0 10 5 10 10 0 6 -4 10 -10 10 -5 0
-10 -4 -10 -10z"/>
<path fill="#FCEBCD" d="M990 2970 c0 -5 5 -10 11 -10 5 0 7 5 4 10 -3 6 -8 10 -11 10 -2 0
-4 -4 -4 -10z"/>
<path fill="#FCEBCD" d="M500 2950 c0 -5 5 -10 11 -10 5 0 7 5 4 10 -3 6 -8 10 -11 10 -2 0
-4 -4 -4 -10z"/>
<path fill="#FCEBCD" d="M900 2950 c0 -5 5 -10 10 -10 6 0 10 5 10 10 0 6 -4 10 -10 10 -5 0
-10 -4 -10 -10z"/>
<path fill="#FCEBCD" d="M1020 2950 c0 -5 5 -10 10 -10 6 0 10 5 10 10 0 6 -4 10 -10 10 -5 0
-10 -4 -10 -10z"/>
<path fill="#FCEBCD" d="M470 2940 c0 -5 5 -10 10 -10 6 0 10 5 10 10 0 6 -4 10 -10 10 -5 0
-10 -4 -10 -10z"/>
<path fill="#FCEBCD" d="M990 2940 c0 -5 5 -10 10 -10 6 0 10 5 10 10 0 6 -4 10 -10 10 -5 0
-10 -4 -10 -10z"/>
<path fill="#FCEBCD" d="M1060 2930 c0 -5 5 -10 11 -10 5 0 7 5 4 10 -3 6 -8 10 -11 10 -2 0
-4 -4 -4 -10z"/>
<path fill="#FCEBCD" d="M1030 2920 c0 -5 5 -10 10 -10 6 0 10 5 10 10 0 6 -4 10 -10 10 -5 0
-10 -4 -10 -10z"/>
<path fill="#FCEBCD" d="M1000 2910 c0 -5 5 -10 10 -10 6 0 10 5 10 10 0 6 -4 10 -10 10 -5 0
-10 -4 -10 -10z"/>
<path fill="#FCEBCD" d="M420 2900 c0 -5 5 -10 11 -10 5 0 7 5 4 10 -3 6 -8 10 -11 10 -2 0
-4 -4 -4 -10z"/>
<path fill="#FCEBCD" d="M940 2900 c0 -5 5 -10 10 -10 6 0 10 5 10 10 0 6 -4 10 -10 10 -5 0
-10 -4 -10 -10z"/>
<path fill="#FCEBCD" d="M1065 2900 c3 -5 8 -10 11 -10 2 0 4 5 4 10 0 6 -5 10 -11 10 -5 0
-7 -4 -4 -10z"/>
<path fill="#FCEBCD" d="M510 2890 c0 -5 5 -10 10 -10 6 0 10 5 10 10 0 6 -4 10 -10 10 -5 0
-10 -4 -10 -10z"/>
<path fill="#FCEBCD" d="M1040 2890 c0 -5 5 -10 11 -10 5 0 7 5 4 10 -3 6 -8 10 -11 10 -2 0
-4 -4 -4 -10z"/>
<path fill="#FCEBCD" d="M420 2869 c0 -5 -4 -7 -10 -4 -5 3 -10 1 -10 -5 0 -7 7 -9 16 -6 9 3
20 6 25 6 6 0 7 5 4 10 -8 13 -25 13 -25 -1z"/>
<path fill="#FCEBCD" d="M950 2870 c0 -5 5 -10 10 -10 6 0 10 5 10 10 0 6 -4 10 -10 10 -5 0
-10 -4 -10 -10z"/>
<path fill="#FCEBCD" d="M1070 2870 c0 -5 5 -10 10 -10 6 0 10 5 10 10 0 6 -4 10 -10 10 -5 0
-10 -4 -10 -10z"/>
<path fill="#FCEBCD" d="M520 2860 c0 -5 5 -10 10 -10 6 0 10 5 10 10 0 6 -4 10 -10 10 -5 0
-10 -4 -10 -10z"/>
<path fill="#FCEBCD" d="M1040 2860 c0 -5 5 -10 10 -10 6 0 10 5 10 10 0 6 -4 10 -10 10 -5 0
-10 -4 -10 -10z"/>
<path fill="#FCEBCD" d="M430 2840 c0 -5 -7 -7 -15 -4 -8 4 -15 1 -15 -5 0 -12 11 -14 34 -5
18 7 22 24 6 24 -5 0 -10 -4 -10 -10z"/>
<path fill="#FCEBCD" d="M1080 2840 c0 -5 5 -10 11 -10 5 0 7 5 4 10 -3 6 -8 10 -11 10 -2 0
-4 -4 -4 -10z"/>
<path fill="#FCEBCD" d="M1055 2830 c3 -5 8 -10 11 -10 2 0 4 5 4 10 0 6 -5 10 -11 10 -5 0
-7 -4 -4 -10z"/>
<path fill="#FCEBCD" d="M990 2820 c0 -5 5 -10 10 -10 6 0 10 5 10 10 0 6 -4 10 -10 10 -5 0
-10 -4 -10 -10z"/>
<path fill="#FCEBCD" d="M440 2810 c0 -5 5 -10 10 -10 6 0 10 5 10 10 0 6 -4 10 -10 10 -5 0
-10 -4 -10 -10z"/>
<path fill="#FCEBCD" d="M960 2810 c0 -5 5 -10 10 -10 6 0 10 5 10 10 0 6 -4 10 -10 10 -5 0
-10 -4 -10 -10z"/>
<path fill="#FCEBCD" d="M1090 2810 c0 -5 5 -10 11 -10 5 0 7 5 4 10 -3 6 -8 10 -11 10 -2 0
-4 -4 -4 -10z"/>
<path fill="#FCEBCD" d="M350 2790 c0 -5 5 -10 10 -10 6 0 10 5 10 10 0 6 -4 10 -10 10 -5 0
-10 -4 -10 -10z"/>
<path fill="#FCEBCD" d="M1000 2790 c0 -5 5 -10 10 -10 6 0 10 5 10 10 0 6 -4 10 -10 10 -5 0
-10 -4 -10 -10z"/>
<path fill="#FCEBCD" d="M1120 2790 c0 -5 5 -10 11 -10 5 0 7 5 4 10 -3 6 -8 10 -11 10 -2 0
-4 -4 -4 -10z"/>
<path fill="#FCEBCD" d="M970 2780 c0 -5 5 -10 10 -10 6 0 10 5 10 10 0 6 -4 10 -10 10 -5 0
-10 -4 -10 -10z"/>
<path fill="#FCEBCD" d="M1095 2780 c3 -5 8 -10 11 -10 2 0 4 5 4 10 0 6 -5 10 -11 10 -5 0
-7 -4 -4 -10z"/>
<path fill="#FCEBCD" d="M360 2760 c0 -5 5 -10 10 -10 6 0 10 5 10 10 0 6 -4 10 -10 10 -5 0
-10 -4 -10 -10z"/>
<path fill="#FCEBCD" d="M1130 2760 c0 -5 5 -10 11 -10 5 0 7 5 4 10 -3 6 -8 10 -11 10 -2 0
-4 -4 -4 -10z"/>
<path fill="#FCEBCD" d="M335 2750 c3 -5 8 -10 11 -10 2 0 4 5 4 10 0 6 -5 10 -11 10 -5 0 -7
-4 -4 -10z"/>
<path fill="#FCEBCD" d="M1105 2750 c3 -5 8 -10 11 -10 2 0 4 5 4 10 0 6 -5 10 -11 10 -5 0
-7 -4 -4 -10z"/>
<path fill="#FCEBCD" d="M1040 2740 c0 -5 5 -10 11 -10 5 0 7 5 4 10 -3 6 -8 10 -11 10 -2 0
-4 -4 -4 -10z"/>
<path fill="#FCEBCD" d="M1015 2730 c3 -5 8 -10 11 -10 2 0 4 5 4 10 0 6 -5 10 -11 10 -5 0
-7 -4 -4 -10z"/>
<path fill="#FCEBCD" d="M985 2720 c3 -5 8 -10 11 -10 2 0 4 5 4 10 0 6 -5 10 -11 10 -5 0 -7
-4 -4 -10z"/>
<path fill="#FCEBCD" d="M1050 2710 c0 -5 5 -10 11 -10 5 0 7 5 4 10 -3 6 -8 10 -11 10 -2 0
-4 -4 -4 -10z"/>
<path fill="#FCEBCD" d="M370 2700 c0 -5 5 -10 10 -10 6 0 10 5 10 10 0 6 -4 10 -10 10 -5 0
-10 -4 -10 -10z"/>
<path fill="#FCEBCD" d="M1025 2700 c3 -5 8 -10 11 -10 2 0 4 5 4 10 0 6 -5 10 -11 10 -5 0
-7 -4 -4 -10z"/>
<path fill="#FCEBCD" d="M1145 2700 c3 -5 8 -10 11 -10 2 0 4 5 4 10 0 6 -5 10 -11 10 -5 0
-7 -4 -4 -10z"/>
<path fill="#FCEBCD" d="M960 2690 c0 -5 5 -10 10 -10 6 0 10 5 10 10 0 6 -4 10 -10 10 -5 0
-10 -4 -10 -10z"/>
<path fill="#FCEBCD" d="M930 2680 c0 -5 5 -10 10 -10 6 0 10 5 10 10 0 6 -4 10 -10 10 -5 0
-10 -4 -10 -10z"/>
<path fill="#FCEBCD" d="M1180 2680 c0 -5 5 -10 11 -10 5 0 7 5 4 10 -3 6 -8 10 -11 10 -2 0
-4 -4 -4 -10z"/>
<path fill="#FCEBCD" d="M1155 2670 c3 -5 8 -10 11 -10 2 0 4 5 4 10 0 6 -5 10 -11 10 -5 0
-7 -4 -4 -10z"/>
<path fill="#FCEBCD" d="M320 2660 c0 -5 5 -10 10 -10 6 0 10 5 10 10 0 6 -4 10 -10 10 -5 0
-10 -4 -10 -10z"/>
<path fill="#FCEBCD" d="M970 2660 c0 -5 5 -10 11 -10 5 0 7 5 4 10 -3 6 -8 10 -11 10 -2 0
-4 -4 -4 -10z"/>
<path fill="#FCEBCD" d="M1090 2660 c0 -5 5 -10 11 -10 5 0 7 5 4 10 -3 6 -8 10 -11 10 -2 0
-4 -4 -4 -10z"/>
<path fill="#FCEBCD" d="M295 2650 c3 -5 8 -10 11 -10 2 0 4 5 4 10 0 6 -5 10 -11 10 -5 0 -7
-4 -4 -10z"/>
<path fill="#FCEBCD" d="M940 2650 c0 -5 5 -10 10 -10 6 0 10 5 10 10 0 6 -4 10 -10 10 -5 0
-10 -4 -10 -10z"/>
<path fill="#FCEBCD" d="M1060 2650 c0 -5 5 -10 10 -10 6 0 10 5 10 10 0 6 -4 10 -10 10 -5 0
-10 -4 -10 -10z"/>
<path fill="#FCEBCD" d="M1035 2640 c3 -5 8 -10 11 -10 2 0 4 5 4 10 0 6 -5 10 -11 10 -5 0
-7 -4 -4 -10z"/>
<path fill="#FCEBCD" d="M330 2630 c0 -5 5 -10 10 -10 6 0 10 5 10 10 0 6 -4 10 -10 10 -5 0
-10 -4 -10 -10z"/>
<path fill="#FCEBCD" d="M850 2630 c0 -5 5 -10 10 -10 6 0 10 5 10 10 0 6 -4 10 -10 10 -5 0
-10 -4 -10 -10z"/>
<path fill="#FCEBCD" d="M975 2630 c3 -5 8 -10 11 -10 2 0 4 5 4 10 0 6 -5 10 -11 10 -5 0 -7
-4 -4 -10z"/>
<path fill="#FCEBCD" d="M1100 2630 c0 -5 5 -10 11 -10 5 0 7 5 4 10 -3 6 -8 10 -11 10 -2 0
-4 -4 -4 -10z"/>
<path fill="#FCEBCD" d="M300 2620 c0 -5 5 -10 10 -10 6 0 10 5 10 10 0 6 -4 10 -10 10 -5 0
-10 -4 -10 -10z"/>
<path fill="#FCEBCD" d="M1070 2620 c0 -5 5 -10 10 -10 6 0 10 5 10 10 0 6 -4 10 -10 10 -5 0
-10 -4 -10 -10z"/>
<path fill="#FCEBCD" d="M1195 2620 c3 -5 8 -10 11 -10 2 0 4 5 4 10 0 6 -5 10 -11 10 -5 0
-7 -4 -4 -10z"/>
<path fill="#FCEBCD" d="M1010 2610 c0 -5 5 -10 11 -10 5 0 7 5 4 10 -3 6 -8 10 -11 10 -2 0
-4 -4 -4 -10z"/>
<path fill="#FCEBCD" d="M1050 2591 c9 -34 5 -42 -18 -34 -13 4 -14 3 -6 -6 17 -18 44 -3 40
22 -3 12 -5 28 -5 35 -1 6 -5 12 -10 12 -6 0 -6 -12 -1 -29z"/>
<path fill="#FCEBCD" d="M320 2600 c-20 -12 -9 -21 18 -13 12 3 19 9 16 14 -7 11 -15 11 -34
-1z"/>
<path fill="#FCEBCD" d="M980 2600 c0 -5 5 -10 10 -10 6 0 10 5 10 10 0 6 -4 10 -10 10 -5 0
-10 -4 -10 -10z"/>
<path fill="#FCEBCD" d="M1110 2600 c0 -5 5 -10 11 -10 5 0 7 5 4 10 -3 6 -8 10 -11 10 -2 0
-4 -4 -4 -10z"/>
<path fill="#FCEBCD" d="M1230 2600 c0 -5 5 -10 11 -10 5 0 7 5 4 10 -3 6 -8 10 -11 10 -2 0
-4 -4 -4 -10z"/>
<path fill="#FCEBCD" d="M955 2590 c3 -5 8 -10 11 -10 2 0 4 5 4 10 0 6 -5 10 -11 10 -5 0 -7
-4 -4 -10z"/>
<path fill="#FCEBCD" d="M1080 2590 c0 -5 5 -10 11 -10 5 0 7 5 4 10 -3 6 -8 10 -11 10 -2 0
-4 -4 -4 -10z"/>
<path fill="#FCEBCD" d="M1205 2590 c3 -5 8 -10 11 -10 2 0 4 5 4 10 0 6 -5 10 -11 10 -5 0
-7 -4 -4 -10z"/>
<path fill="#FCEBCD" d="M1020 2580 c0 -5 5 -10 10 -10 6 0 10 5 10 10 0 6 -4 10 -10 10 -5 0
-10 -4 -10 -10z"/>
<path fill="#FCEBCD" d="M340 2570 c0 -5 5 -10 10 -10 6 0 10 5 10 10 0 6 -4 10 -10 10 -5 0
-10 -4 -10 -10z"/>
<path fill="#FCEBCD" d="M990 2570 c0 -5 5 -10 10 -10 6 0 10 5 10 10 0 6 -4 10 -10 10 -5 0
-10 -4 -10 -10z"/>
<path fill="#FCEBCD" d="M1110 2570 c0 -5 5 -10 10 -10 6 0 10 5 10 10 0 6 -4 10 -10 10 -5 0
-10 -4 -10 -10z"/>
<path fill="#FCEBCD" d="M280 2560 c0 -5 5 -10 10 -10 6 0 10 5 10 10 0 6 -4 10 -10 10 -5 0
-10 -4 -10 -10z"/>
<path fill="#FCEBCD" d="M930 2560 c0 -5 5 -10 10 -10 6 0 10 5 10 10 0 6 -4 10 -10 10 -5 0
-10 -4 -10 -10z"/>
<path fill="#FCEBCD" d="M966 2548 c11 -38 24 -56 20 -28 -3 14 -5 31 -5 38 -1 6 -6 12 -12
12 -6 0 -8 -9 -3 -22z"/>
<path fill="#FCEBCD" d="M1085 2560 c3 -5 8 -10 11 -10 2 0 4 5 4 10 0 6 -5 10 -11 10 -5 0
-7 -4 -4 -10z"/>
<path fill="#FCEBCD" d="M900 2550 c0 -5 5 -10 10 -10 6 0 10 5 10 10 0 6 -4 10 -10 10 -5 0
-10 -4 -10 -10z"/>
<path fill="#FCEBCD" d="M1150 2550 c0 -5 5 -10 11 -10 5 0 7 5 4 10 -3 6 -8 10 -11 10 -2 0
-4 -4 -4 -10z"/>
<path fill="#FCEBCD" d="M1180 2549 c0 -5 5 -7 10 -4 6 3 10 8 10 11 0 2 -4 4 -10 4 -5 0 -10
-5 -10 -11z"/>
<path fill="#FCEBCD" d="M844 2537 c3 -10 6 -23 6 -28 0 -5 5 -9 10 -9 14 0 12 13 -6 36 -14
17 -15 17 -10 1z"/>
<path fill="#FCEBCD" d="M1000 2540 c0 -5 5 -10 11 -10 5 0 7 5 4 10 -3 6 -8 10 -11 10 -2 0
-4 -4 -4 -10z"/>
<path fill="#FCEBCD" d="M1120 2540 c0 -5 5 -10 10 -10 6 0 10 5 10 10 0 6 -4 10 -10 10 -5 0
-10 -4 -10 -10z"/>
<path fill="#FCEBCD" d="M290 2530 c0 -5 5 -10 10 -10 6 0 10 5 10 10 0 6 -4 10 -10 10 -5 0
-10 -4 -10 -10z"/>
<path fill="#FCEBCD" d="M940 2530 c0 -5 5 -10 11 -10 5 0 7 5 4 10 -3 6 -8 10 -11 10 -2 0
-4 -4 -4 -10z"/>
<path fill="#FCEBCD" d="M1060 2530 c0 -5 5 -10 11 -10 5 0 7 5 4 10 -3 6 -8 10 -11 10 -2 0
-4 -4 -4 -10z"/>
<path fill="#FCEBCD" d="M1095 2530 c3 -5 8 -10 11 -10 2 0 4 5 4 10 0 6 -5 10 -11 10 -5 0
-7 -4 -4 -10z"/>
<path fill="#FCEBCD" d="M260 2520 c0 -5 5 -10 10 -10 6 0 10 5 10 10 0 6 -4 10 -10 10 -5 0
-10 -4 -10 -10z"/>
<path fill="#FCEBCD" d="M910 2520 c0 -5 5 -10 10 -10 6 0 10 5 10 10 0 6 -4 10 -10 10 -5 0
-10 -4 -10 -10z"/>
<path fill="#FCEBCD" d="M1030 2520 c0 -5 5 -10 10 -10 6 0 10 5 10 10 0 6 -4 10 -10 10 -5 0
-10 -4 -10 -10z"/>
<path fill="#FCEBCD" d="M1005 2510 c3 -5 8 -10 11 -10 2 0 4 5 4 10 0 6 -5 10 -11 10 -5 0
-7 -4 -4 -10z"/>
<path fill="#FCEBCD" d="M820 2500 c0 -5 5 -10 10 -10 6 0 10 5 10 10 0 6 -4 10 -10 10 -5 0
-10 -4 -10 -10z"/>
<path fill="#FCEBCD" d="M1100 2499 c0 -5 5 -7 10 -4 6 3 10 8 10 11 0 2 -4 4 -10 4 -5 0 -10
-5 -10 -11z"/>
<path fill="#FCEBCD" d="M890 2479 c0 -5 5 -7 10 -4 6 3 10 8 10 11 0 2 -4 4 -10 4 -5 0 -10
-5 -10 -11z"/>
<path fill="#FCEBCD" d="M950 2481 c0 -5 5 -13 10 -16 6 -3 10 -2 10 4 0 5 -4 13 -10 16 -5 3
-10 2 -10 -4z"/>
<path fill="#FCEBCD" d="M980 2480 c0 -5 5 -10 11 -10 5 0 7 5 4 10 -3 6 -8 10 -11 10 -2 0
-4 -4 -4 -10z"/>
<path fill="#FCEBCD" d="M1050 2462 c0 -5 11 -7 25 -4 14 2 33 -2 42 -9 14 -12 16 -12 11 1
-5 16 -78 28 -78 12z"/>
<path fill="#FCEBCD" d="M1180 2427 c0 -6 48 -57 54 -57 13 0 -8 30 -30 45 -13 8 -24 14 -24
12z"/>
<path fill="#FCEBCD" d="M414 2383 c2 -15 1 -22 -1 -15 -5 14 -23 17 -23 3 0 -12 -33 -9 -42
5 -4 5 -23 8 -42 6 -27 -3 -36 -9 -36 -23 0 -10 -6 -19 -12 -19 -30 -1 -39
-17 -33 -53 4 -20 11 -34 16 -32 4 3 6 19 2 35 -3 19 -1 30 5 30 6 0 9 -7 6
-15 -4 -8 -1 -15 5 -15 6 0 12 10 12 23 1 16 2 18 6 5 3 -14 12 -17 36 -13 29
5 33 3 35 -20 1 -16 -2 -24 -8 -20 -6 4 -8 10 -5 15 3 5 1 11 -5 15 -6 3 -10
-4 -10 -18 0 -17 7 -27 23 -31 18 -5 20 -8 7 -16 -8 -5 -10 -10 -5 -10 6 -1 0
-5 -12 -10 -15 -6 -20 -15 -16 -29 3 -12 12 -21 19 -21 8 0 14 -5 14 -11 0 -5
-4 -8 -9 -4 -5 3 -12 1 -16 -4 -3 -6 -13 -7 -21 -4 -13 5 -15 1 -9 -15 5 -16
2 -22 -9 -22 -16 0 -17 -24 -3 -47 5 -7 4 -13 -2 -13 -5 0 -11 6 -14 13 -8 23
-15 2 -10 -30 5 -34 23 -46 23 -15 0 11 3 13 8 5 9 -15 33 -12 56 7 42 36 66
66 61 78 -2 7 2 15 10 18 8 4 15 17 15 31 0 13 4 21 10 18 6 -3 10 5 10 18 0
35 26 94 33 76 7 -18 -2 46 -14 94 -6 20 -15 37 -21 37 -7 0 -6 -5 2 -15 9
-10 9 -15 1 -15 -6 0 -12 5 -12 10 -1 6 -2 15 -3 22 0 6 -7 13 -13 15 -9 3
-12 -4 -9 -24z m-114 -33 c0 -5 -2 -10 -4 -10 -3 0 -8 5 -11 10 -3 6 -1 10 4
10 6 0 11 -4 11 -10z m45 -159 c3 -5 1 -12 -5 -16 -5 -3 -10 1 -10 9 0 18 6
21 15 7z m62 -53 c-3 -8 -6 -5 -6 6 -1 11 2 17 5 13 3 -3 4 -12 1 -19z"/>
<path fill="#FCEBCD" d="M940 2399 c0 -9 -15 -20 -33 -26 -28 -8 -36 -7 -46 6 -11 14 -11 14
-7 -1 3 -10 1 -18 -4 -18 -6 0 -10 5 -10 10 0 6 -4 10 -10 10 -5 0 -10 -6 -10
-14 0 -7 -9 -16 -20 -19 -13 -3 -20 0 -20 9 0 8 -4 14 -10 14 -5 0 -10 -4 -10
-8 0 -12 29 -49 30 -37 0 15 40 13 40 -2 0 -7 -7 -10 -17 -6 -13 4 -15 3 -7
-6 14 -15 71 4 77 27 3 10 5 6 6 -10 0 -14 -4 -28 -11 -30 -8 -3 -9 -11 -3
-24 4 -10 9 -23 9 -29 1 -11 68 -7 76 4 3 4 13 10 23 14 15 6 17 1 13 -48 -5
-51 7 -77 17 -37 4 13 5 11 6 -5 1 -23 -22 -32 -34 -13 -3 5 -22 8 -41 5 -21
-2 -32 0 -29 5 4 6 1 10 -4 10 -6 0 -11 -8 -11 -17 0 -15 -2 -14 -15 3 -15 18
-15 18 -11 -6 16 -101 17 -106 6 -81 -6 14 -12 33 -13 43 -2 9 -7 21 -11 25
-11 10 3 -89 14 -102 5 -5 10 -14 12 -20 1 -5 10 -9 18 -8 12 1 11 -1 -2 -11
-22 -16 -24 -30 -3 -23 8 4 17 2 20 -3 4 -6 -5 -10 -19 -10 -13 0 -26 5 -28
12 -3 9 -6 9 -12 0 -4 -7 -3 -12 3 -12 6 0 9 -6 7 -12 -1 -7 -1 -10 1 -5 3 4
24 7 48 7 24 0 56 5 72 11 44 17 113 23 113 10 0 -6 4 -11 10 -11 5 0 7 6 4
13 -2 7 7 19 21 27 19 10 25 21 25 47 0 20 4 32 10 28 6 -3 10 -2 10 4 0 6
-12 8 -29 5 -28 -6 -30 -4 -41 35 -6 22 -13 41 -16 41 -4 0 -4 -7 -1 -15 4 -8
2 -17 -2 -20 -5 -2 -11 4 -14 14 -3 14 -11 18 -26 14 -16 -4 -20 -2 -15 10 3
9 12 13 21 10 11 -4 14 -2 9 5 -4 7 0 15 10 19 15 6 15 7 -4 14 -12 5 -22 16
-22 26 0 13 3 14 12 5 7 -7 17 -12 22 -12 6 0 5 5 -1 11 -6 6 -9 18 -6 25 3 8
0 14 -7 14 -6 0 -8 5 -4 12 5 8 10 6 19 -5 6 -9 22 -14 38 -13 15 2 28 -3 31
-10 3 -8 12 -14 20 -14 8 0 16 -6 19 -12 2 -7 7 -10 11 -7 4 3 2 18 -3 33 -6
14 -7 26 -2 26 5 0 12 -16 15 -35 11 -57 23 -40 23 33 1 37 -1 57 -4 44 -4
-23 -5 -23 -20 -5 -13 16 -14 16 -9 1 3 -10 1 -18 -4 -18 -5 0 -12 11 -16 25
-9 35 -21 31 -16 -5 2 -18 0 -30 -7 -30 -6 0 -8 7 -5 15 4 8 1 15 -5 15 -6 0
-11 -10 -11 -22 0 -30 -8 -19 -15 21 -7 42 -14 53 -26 45 -6 -3 -17 2 -25 12
-12 17 -13 17 -8 2 3 -10 1 -18 -5 -18 -6 0 -11 4 -11 9 0 6 -8 9 -17 9 -10
-1 -29 2 -42 6 -16 6 -21 5 -17 -3 10 -15 -7 -14 -22 1 -9 9 -12 9 -12 -3z
m170 -33 c0 -3 -4 -8 -10 -11 -5 -3 -10 -1 -10 4 0 6 5 11 10 11 6 0 10 -2 10
-4z m-250 -36 c0 -5 -2 -10 -4 -10 -3 0 -8 5 -11 10 -3 6 -1 10 4 10 6 0 11
-4 11 -10z m320 -46 c0 -8 -5 -12 -10 -9 -6 4 -8 11 -5 16 9 14 15 11 15 -7z
m-83 -196 c-3 -7 -5 -2 -5 12 0 14 2 19 5 13 2 -7 2 -19 0 -25z m53 -22 c0 -3
-4 -8 -10 -11 -5 -3 -10 -1 -10 4 0 6 5 11 10 11 6 0 10 -2 10 -4z"/>
<path fill="#FCEBCD" d="M632 2346 c-10 -27 -10 -29 3 -13 13 18 14 17 17 -10 3 -24 4 -22 8
13 6 49 -12 55 -28 10z"/>
<path fill="#FCEBCD" d="M790 2370 c0 -5 5 -10 10 -10 6 0 10 5 10 10 0 6 -4 10 -10 10 -5 0
-10 -4 -10 -10z"/>
<path fill="#FCEBCD" d="M240 2360 c0 -5 5 -10 10 -10 6 0 10 5 10 10 0 6 -4 10 -10 10 -5 0
-10 -4 -10 -10z"/>
<path fill="#FCEBCD" d="M1130 2360 c0 -5 5 -10 10 -10 6 0 10 5 10 10 0 6 -4 10 -10 10 -5 0
-10 -4 -10 -10z"/>
<path fill="#FCEBCD" d="M560 2306 c0 -14 -3 -17 -8 -8 -6 8 -13 1 -25 -23 -21 -44 -21 -42 3
-48 12 -3 20 -13 19 -24 -1 -16 -2 -16 -6 0 -2 9 -9 17 -15 17 -5 0 -8 -7 -4
-15 3 -8 1 -15 -4 -15 -6 0 -10 7 -10 15 0 8 -4 15 -10 15 -5 0 -10 -9 -10
-20 0 -11 -4 -20 -10 -20 -5 0 -10 -5 -10 -11 0 -6 6 -9 14 -6 10 4 17 -4 21
-24 4 -16 11 -29 17 -29 6 0 8 7 4 15 -3 8 -2 15 3 15 5 0 11 -9 14 -20 4 -15
0 -20 -13 -20 -12 0 -17 -6 -15 -17 1 -10 0 -12 -2 -5 -7 18 -23 15 -24 -5 0
-15 -2 -15 -9 2 -14 33 -11 55 7 55 12 0 14 3 7 10 -16 16 -41 2 -47 -26 -2
-13 0 -24 4 -24 5 0 8 -10 8 -22 -1 -17 -2 -19 -6 -5 -6 23 -23 22 -23 -3 0
-11 -4 -20 -10 -20 -5 0 -10 -6 -10 -14 0 -8 -7 -16 -15 -20 -8 -3 -13 -11
-11 -18 1 -7 1 -10 -1 -5 -3 4 -9 7 -15 7 -6 0 -8 -13 -4 -35 6 -29 4 -34 -9
-29 -10 4 -15 0 -15 -12 0 -17 -1 -16 -15 2 -8 10 -15 14 -15 8 0 -16 -32 -12
-48 6 -12 13 -13 13 -8 -2 3 -10 1 -18 -4 -18 -6 0 -10 5 -10 10 0 19 -15 10
-27 -15 -9 -20 -8 -25 3 -25 8 0 14 -4 14 -10 0 -5 -6 -7 -14 -4 -7 3 -16 -1
-19 -9 -3 -9 2 -13 16 -13 13 1 22 -6 23 -17 1 -12 1 -13 -3 -2 -7 23 -23 18
-24 -7 0 -22 -1 -22 -9 -3 -7 16 -9 13 -9 -17 -1 -20 -7 -39 -13 -41 -8 -3 -6
-6 5 -6 9 -1 17 -5 17 -11 0 -5 -7 -7 -15 -4 -11 5 -13 -1 -8 -30 4 -24 2 -36
-6 -36 -6 0 -9 -10 -7 -22 3 -13 10 -48 16 -78 20 -97 21 -110 11 -110 -6 0
-11 -4 -11 -9 0 -4 11 -6 25 -3 24 4 36 22 14 22 -5 0 -7 5 -4 10 4 6 11 8 16
5 5 -4 9 5 9 19 0 16 5 25 12 24 7 -2 12 3 10 10 -1 7 5 15 13 18 8 4 15 12
15 19 0 7 11 16 25 19 14 4 25 14 26 24 0 10 3 12 6 5 7 -19 23 -16 24 5 0 10
3 12 6 5 2 -7 9 -13 14 -13 6 0 7 5 4 11 -4 6 2 13 14 16 11 3 18 10 15 15 -3
5 -12 7 -19 4 -9 -3 -16 6 -20 25 -5 21 -11 29 -21 25 -8 -3 -14 -1 -14 4 0 6
5 10 10 10 18 0 11 20 -7 21 -16 0 -16 1 1 8 21 8 66 -26 66 -50 0 -11 -2 -11
-10 1 -11 18 -25 6 -16 -16 3 -9 13 -14 20 -11 10 4 17 -4 21 -24 7 -30 20
-38 28 -16 4 7 8 3 12 -10 7 -20 24 -24 55 -13 3 2 8 2 13 1 4 0 7 4 7 10 0 6
-7 9 -15 5 -9 -3 -15 0 -15 9 0 9 6 12 15 9 8 -4 15 -1 15 5 0 6 -4 11 -10 11
-5 0 -7 7 -4 15 4 8 2 15 -4 15 -6 0 -12 -4 -14 -9 -1 -4 -12 -5 -23 0 -18 7
-18 8 -2 8 10 1 15 6 12 12 -4 6 -13 8 -21 5 -8 -3 -14 -1 -14 4 0 6 5 10 11
10 6 0 9 7 6 14 -4 9 2 17 14 21 12 4 18 12 15 21 -3 8 -1 14 4 14 6 0 10 -4
10 -10 0 -5 14 -10 30 -10 17 0 30 -4 30 -10 0 -5 9 -10 19 -10 11 0 23 -5 26
-10 4 -6 11 -8 16 -5 5 4 9 -1 9 -9 0 -9 -5 -16 -11 -16 -6 0 -9 -8 -7 -17 3
-16 11 -18 63 -14 8 1 15 6 15 12 0 6 -7 9 -15 5 -8 -3 -15 -1 -15 4 0 6 7 10
15 10 8 0 15 5 15 11 0 5 5 7 10 4 6 -3 10 -1 10 5 0 7 -8 9 -20 5 -16 -5 -19
-3 -13 11 5 13 3 16 -9 11 -15 -5 -29 11 -32 38 -1 6 -9 9 -19 9 -9 -1 -17 4
-17 12 0 21 -20 17 -21 -3 0 -10 -7 0 -15 21 -18 51 -27 59 -19 18 3 -20 1
-32 -5 -32 -6 0 -9 4 -5 9 9 16 -12 22 -38 12 -23 -9 -26 -7 -32 20 -5 21 -11
29 -21 25 -8 -3 -14 -1 -14 4 0 5 8 11 18 13 14 4 14 6 -5 12 -13 4 -23 12
-23 19 0 6 -3 21 -6 32 -4 16 0 23 14 26 16 4 21 -1 26 -23 3 -16 10 -29 16
-29 6 0 8 5 4 12 -13 21 -11 48 3 48 7 0 13 8 13 18 0 10 12 23 28 29 15 7 19
11 10 10 -9 -1 -17 3 -17 8 -1 6 5 10 12 10 6 1 10 7 9 15 -16 66 -14 77 11
84 24 6 26 9 20 51 -3 31 -1 45 7 45 6 0 10 10 8 23 -4 30 -48 34 -48 3z m-23
-58 c-3 -8 -6 -5 -6 6 -1 11 2 17 5 13 3 -3 4 -12 1 -19z m42 -35 c1 -7 -3
-13 -9 -13 -5 0 -7 7 -4 15 4 8 2 15 -4 15 -6 0 -7 10 -4 23 6 22 6 22 13 -3
4 -14 7 -31 8 -37z m-44 -42 c3 -5 1 -12 -5 -16 -5 -3 -10 1 -10 9 0 18 6 21
15 7z m-25 -135 c0 -3 -4 -8 -10 -11 -5 -3 -10 -1 -10 4 0 6 5 11 10 11 6 0
10 -2 10 -4z m-193 -161 c1 -16 1 -16 -3 -2 -6 20 -20 22 -27 5 -3 -8 -6 -5
-6 5 -1 26 33 18 36 -8z m230 -57 c-3 -8 -6 -5 -6 6 -1 11 2 17 5 13 3 -3 4
-12 1 -19z m-17 8 c0 -3 -4 -8 -10 -11 -5 -3 -10 -1 -10 4 0 6 5 11 10 11 6 0
10 -2 10 -4z"/>
<path fill="#FCEBCD" d="M840 2290 c0 -5 5 -10 11 -10 5 0 7 5 4 10 -3 6 -8 10 -11 10 -2 0
-4 -4 -4 -10z"/>
<path fill="#FCEBCD" d="M290 2280 c0 -5 5 -10 10 -10 6 0 10 5 10 10 0 6 -4 10 -10 10 -5 0
-10 -4 -10 -10z"/>
<path fill="#FCEBCD" d="M260 2270 c0 -5 5 -10 10 -10 6 0 10 5 10 10 0 6 -4 10 -10 10 -5 0
-10 -4 -10 -10z"/>
<path fill="#FCEBCD" d="M200 2260 c0 -5 5 -10 10 -10 6 0 10 5 10 10 0 6 -4 10 -10 10 -5 0
-10 -4 -10 -10z"/>
<path fill="#FCEBCD" d="M600 2260 c0 -5 5 -10 10 -10 6 0 10 5 10 10 0 6 -4 10 -10 10 -5 0
-10 -4 -10 -10z"/>
<path fill="#FCEBCD" d="M850 2260 c0 -5 5 -10 11 -10 5 0 7 5 4 10 -3 6 -8 10 -11 10 -2 0
-4 -4 -4 -10z"/>
<path fill="#FCEBCD" d="M855 2230 c3 -5 8 -10 11 -10 2 0 4 5 4 10 0 6 -5 10 -11 10 -5 0 -7
-4 -4 -10z"/>
<path fill="#FCEBCD" d="M1262 2215 c0 -16 2 -22 5 -12 2 9 2 23 0 30 -3 6 -5 -1 -5 -18z"/>
<path fill="#FCEBCD" d="M940 2220 c0 -5 5 -10 10 -10 6 0 10 5 10 10 0 6 -4 10 -10 10 -5 0
-10 -4 -10 -10z"/>
<path fill="#FCEBCD" d="M1200 2220 c0 -5 5 -10 11 -10 5 0 7 5 4 10 -3 6 -8 10 -11 10 -2 0
-4 -4 -4 -10z"/>
<path fill="#FCEBCD" d="M935 2190 c-3 -5 1 -10 9 -10 8 0 18 5 21 10 3 6 -1 10 -9 10 -8 0
-18 -4 -21 -10z"/>
<path fill="#FCEBCD" d="M661 2175 c0 -11 4 -27 9 -35 9 -13 10 -13 9 0 0 8 -4 24 -9 35 l-9
20 0 -20z"/>
<path fill="#FCEBCD" d="M590 2170 c0 -5 5 -10 11 -10 5 0 7 5 4 10 -3 6 -8 10 -11 10 -2 0
-4 -4 -4 -10z"/>
<path fill="#FCEBCD" d="M560 2160 c0 -5 5 -10 10 -10 6 0 10 5 10 10 0 6 -4 10 -10 10 -5 0
-10 -4 -10 -10z"/>
<path fill="#FCEBCD" d="M1120 2140 c0 -5 5 -10 10 -10 6 0 10 5 10 10 0 6 -4 10 -10 10 -5 0
-10 -4 -10 -10z"/>
<path fill="#FCEBCD" d="M570 2130 c0 -5 5 -10 10 -10 6 0 10 5 10 10 0 6 -4 10 -10 10 -5 0
-10 -4 -10 -10z"/>
<path fill="#FCEBCD" d="M820 2130 c0 -5 5 -10 10 -10 6 0 10 5 10 10 0 6 -4 10 -10 10 -5 0
-10 -4 -10 -10z"/>
<path fill="#FCEBCD" d="M265 2120 c3 -5 11 -10 16 -10 6 0 7 5 4 10 -3 6 -11 10 -16 10 -6 0
-7 -4 -4 -10z"/>
<path fill="#FCEBCD" d="M1160 2120 c0 -5 5 -10 11 -10 5 0 7 5 4 10 -3 6 -8 10 -11 10 -2 0
-4 -4 -4 -10z"/>
<path fill="#FCEBCD" d="M238 2095 c2 -14 9 -25 14 -25 6 0 7 7 4 16 -3 9 -6 20 -6 25 0 5 -4
9 -9 9 -4 0 -6 -11 -3 -25z"/>
<path fill="#FCEBCD" d="M480 2110 c0 -5 5 -10 10 -10 6 0 10 5 10 10 0 6 -4 10 -10 10 -5 0
-10 -4 -10 -10z"/>
<path fill="#FCEBCD" d="M1130 2110 c0 -5 5 -10 10 -10 6 0 10 5 10 10 0 6 -4 10 -10 10 -5 0
-10 -4 -10 -10z"/>
<path fill="#FCEBCD" d="M1255 2110 c3 -5 8 -10 11 -10 2 0 4 5 4 10 0 6 -5 10 -11 10 -5 0
-7 -4 -4 -10z"/>
<path fill="#FCEBCD" d="M690 2086 c0 -2 8 -10 18 -17 15 -13 16 -12 3 4 -13 16 -21 21 -21
13z"/>
<path fill="#FCEBCD" d="M1235 2070 c3 -5 8 -10 11 -10 2 0 4 5 4 10 0 6 -5 10 -11 10 -5 0
-7 -4 -4 -10z"/>
<path fill="#FCEBCD" d="M220 2050 c0 -5 5 -10 10 -10 6 0 10 5 10 10 0 6 -4 10 -10 10 -5 0
-10 -4 -10 -10z"/>
<path fill="#FCEBCD" d="M560 2040 c0 -5 5 -10 11 -10 5 0 7 5 4 10 -3 6 -8 10 -11 10 -2 0
-4 -4 -4 -10z"/>
<path fill="#FCEBCD" d="M744 2023 c25 -28 74 -54 60 -32 -3 5 -11 9 -19 9 -8 0 -18 6 -22 13
-4 6 -17 19 -28 27 -11 8 -7 0 9 -17z"/>
<path fill="#FCEBCD" d="M1210 2040 c0 -5 5 -10 11 -10 5 0 7 5 4 10 -3 6 -8 10 -11 10 -2 0
-4 -4 -4 -10z"/>
<path fill="#FCEBCD" d="M1240 2039 c0 -5 5 -7 10 -4 6 3 10 8 10 11 0 2 -4 4 -10 4 -5 0 -10
-5 -10 -11z"/>
<path fill="#FCEBCD" d="M530 2030 c0 -5 5 -10 10 -10 6 0 10 5 10 10 0 6 -4 10 -10 10 -5 0
-10 -4 -10 -10z"/>
<path fill="#FCEBCD" d="M1185 2030 c-3 -5 -1 -10 4 -10 6 0 11 5 11 10 0 6 -2 10 -4 10 -3 0
-8 -4 -11 -10z"/>
<path fill="#FCEBCD" d="M230 2020 c0 -5 5 -10 10 -10 6 0 10 5 10 10 0 6 -4 10 -10 10 -5 0
-10 -4 -10 -10z"/>
<path fill="#FCEBCD" d="M570 2010 c0 -5 5 -10 11 -10 5 0 7 5 4 10 -3 6 -8 10 -11 10 -2 0
-4 -4 -4 -10z"/>
<path fill="#FCEBCD" d="M1188 2008 c-16 -5 -28 -17 -29 -26 0 -11 -2 -12 -6 -4 -7 17 -23 15
-23 -3 0 -10 -11 -15 -30 -16 -46 -2 -50 -3 -50 -14 0 -5 7 -10 16 -10 8 0 19
-7 24 -15 8 -13 10 -12 10 3 0 9 5 17 11 17 5 0 8 -4 4 -9 -3 -5 -1 -12 5 -16
6 -3 11 4 11 17 1 17 3 18 6 6 2 -10 9 -18 15 -18 5 0 8 7 4 15 -3 8 -1 15 4
15 6 0 10 -4 10 -10 0 -5 5 -10 10 -10 7 0 8 13 4 35 -5 30 -4 34 10 29 9 -3
16 -1 16 5 0 6 7 8 17 4 11 -4 14 -3 9 5 -8 14 -12 14 -48 0z"/>
<path fill="#FCEBCD" d="M540 2000 c0 -5 5 -10 10 -10 6 0 10 5 10 10 0 6 -4 10 -10 10 -5 0
-10 -4 -10 -10z"/>
<path fill="#FCEBCD" d="M510 1990 c0 -5 5 -10 10 -10 6 0 10 5 10 10 0 6 -4 10 -10 10 -5 0
-10 -4 -10 -10z"/>
<path fill="#FCEBCD" d="M330 1971 c0 -11 5 -23 10 -26 6 -4 10 5 10 19 0 14 -4 26 -10 26 -5
0 -10 -9 -10 -19z"/>
<path fill="#FCEBCD" d="M450 1980 c0 -5 5 -10 10 -10 6 0 10 5 10 10 0 6 -4 10 -10 10 -5 0
-10 -4 -10 -10z"/>
<path fill="#FCEBCD" d="M820 1980 c0 -5 5 -10 11 -10 5 0 7 5 4 10 -3 6 -8 10 -11 10 -2 0
-4 -4 -4 -10z"/>
<path fill="#FCEBCD" d="M1220 1980 c0 -5 -7 -7 -15 -4 -8 4 -15 1 -15 -5 0 -12 11 -14 34 -5
18 7 22 24 6 24 -5 0 -10 -4 -10 -10z"/>
<path fill="#FCEBCD" d="M300 1973 c0 -4 5 -15 10 -23 8 -13 10 -13 10 2 0 9 -4 20 -10 23 -5
3 -10 3 -10 -2z"/>
<path fill="#FCEBCD" d="M1262 1950 c0 -14 2 -19 5 -12 2 6 2 18 0 25 -3 6 -5 1 -5 -13z"/>
<path fill="#FCEBCD" d="M460 1950 c0 -5 5 -10 10 -10 6 0 10 5 10 10 0 6 -4 10 -10 10 -5 0
-10 -4 -10 -10z"/>
<path fill="#FCEBCD" d="M1020 1943 c0 -13 5 -23 10 -23 13 0 13 11 0 30 -8 12 -10 11 -10 -7z"/>
<path fill="#FCEBCD" d="M1230 1950 c0 -5 5 -10 10 -10 6 0 10 5 10 10 0 6 -4 10 -10 10 -5 0
-10 -4 -10 -10z"/>
<path fill="#FCEBCD" d="M280 1940 c0 -5 5 -10 11 -10 5 0 7 5 4 10 -3 6 -8 10 -11 10 -2 0
-4 -4 -4 -10z"/>
<path fill="#FCEBCD" d="M1200 1940 c0 -5 5 -10 10 -10 6 0 10 5 10 10 0 6 -4 10 -10 10 -5 0
-10 -4 -10 -10z"/>
<path fill="#FCEBCD" d="M495 1930 c3 -5 8 -10 11 -10 2 0 4 5 4 10 0 6 -5 10 -11 10 -5 0 -7
-4 -4 -10z"/>
<path fill="#FCEBCD" d="M873 1932 c-24 -2 -33 -8 -33 -21 0 -10 -9 -21 -20 -24 -13 -3 -20 0
-20 9 0 8 -4 14 -10 14 -5 0 -8 -8 -6 -17 6 -34 18 -53 29 -46 6 4 8 -2 5 -15
-4 -12 -2 -20 3 -16 5 3 9 -1 9 -10 0 -8 -6 -17 -12 -19 -8 -3 -6 -6 5 -6 9
-1 17 -6 17 -12 0 -5 -4 -7 -10 -4 -6 3 -8 -15 -6 -47 2 -29 2 -45 -1 -35 -5
19 -25 24 -21 5 2 -7 -2 -13 -7 -13 -6 0 -9 3 -8 7 2 5 -2 8 -7 8 -6 0 -10 -7
-10 -15 0 -8 -4 -15 -10 -15 -5 0 -10 -5 -10 -11 0 -6 7 -9 15 -5 9 3 15 0 15
-9 0 -8 5 -15 11 -15 6 0 9 7 5 15 -3 8 -2 15 3 15 9 0 21 -34 21 -63 0 -10
-4 -15 -10 -12 -5 3 -10 1 -10 -5 0 -7 7 -10 15 -6 8 3 19 -3 25 -12 9 -13 10
-14 7 -1 -4 11 6 18 34 26 31 8 39 8 39 -3 0 -17 20 -19 21 -1 0 6 7 -6 16
-27 14 -33 18 -36 23 -20 6 16 8 13 14 -13 7 -32 25 -46 27 -20 0 6 5 1 11
-13 6 -14 10 -31 9 -38 -2 -9 8 -12 31 -10 38 4 54 -26 18 -35 -13 -3 -20 0
-20 9 0 8 -5 14 -11 14 -6 0 -9 -7 -5 -15 3 -8 2 -15 -3 -15 -5 0 -12 11 -15
25 -9 37 -25 30 -17 -7 4 -19 13 -33 21 -33 14 0 35 -31 32 -47 -1 -5 2 -8 8
-8 5 0 7 13 4 30 -4 19 -2 30 4 30 6 0 9 -7 6 -15 -4 -8 -1 -15 5 -15 6 0 12
10 12 23 1 16 2 18 6 5 2 -10 9 -18 14 -18 10 0 8 28 -4 46 -9 15 1 24 19 17
8 -3 14 0 14 6 0 6 7 8 15 5 8 -4 15 -1 15 5 0 6 -9 11 -20 11 -11 0 -20 4
-20 10 0 5 7 7 15 4 8 -4 15 -2 15 4 0 5 -9 12 -20 15 -11 3 -20 12 -20 20 0
8 9 17 20 20 13 3 20 0 20 -9 0 -8 5 -14 11 -14 6 0 9 7 5 15 -3 10 1 15 13
15 14 0 17 6 14 24 -4 19 -1 24 14 23 10 -1 21 -9 25 -17 4 -9 7 -4 7 15 1 38
-9 75 -19 75 -5 0 -5 -13 0 -30 5 -16 6 -31 2 -31 -4 -1 -11 -2 -17 -4 -5 -1
-16 -3 -24 -3 -7 -1 -11 -8 -8 -17 4 -8 2 -17 -2 -20 -9 -5 -19 23 -27 76 -4
22 0 28 21 33 20 5 24 11 21 29 -15 73 -26 130 -26 133 0 2 -4 4 -10 4 -5 0
-8 -10 -6 -22 3 -13 5 -23 6 -23 2 0 10 -36 16 -75 5 -31 4 -36 -15 -36 -12 0
-21 6 -21 13 0 7 -5 13 -11 13 -6 0 -9 -7 -5 -15 3 -8 2 -15 -3 -15 -8 0 -21
33 -21 56 0 7 11 15 25 18 27 7 27 3 5 113 -6 29 -16 53 -22 53 -5 0 -8 -7 -4
-15 3 -8 1 -15 -4 -15 -6 0 -10 5 -10 10 0 6 -5 10 -11 10 -6 0 -9 -9 -6 -19
3 -13 1 -18 -9 -14 -7 2 -10 11 -7 19 3 8 1 14 -5 14 -6 0 -13 -6 -15 -12 -3
-8 -6 -7 -6 4 -1 9 -6 20 -13 24 -8 5 -9 2 -5 -9 3 -9 2 -19 -3 -22 -6 -4 -10
1 -10 9 0 10 -9 16 -26 16 -14 0 -23 4 -19 10 3 6 1 10 -5 10 -8 0 -9 -10 -5
-30 6 -26 4 -30 -14 -30 -14 0 -23 8 -27 26 -4 16 -12 23 -20 20 -8 -3 -14 -1
-14 4 0 5 8 10 18 12 28 6 0 14 -35 10z m2 -58 c3 -27 2 -33 -4 -19 -5 11 -7
23 -5 27 3 4 0 9 -6 13 -6 4 -8 11 -4 16 9 15 13 7 19 -37z m125 0 c0 -8 -5
-12 -10 -9 -6 4 -8 11 -5 16 9 14 15 11 15 -7z m90 -36 c10 -3 8 -6 -7 -10
-15 -4 -23 0 -26 14 -4 14 -2 16 6 10 7 -5 19 -11 27 -14z m37 0 c-3 -8 -6 -5
-6 6 -1 11 2 17 5 13 3 -3 4 -12 1 -19z m-150 -10 c-3 -8 -6 -5 -6 6 -1 11 2
17 5 13 3 -3 4 -12 1 -19z m30 -10 c-3 -7 -5 -2 -5 12 0 14 2 19 5 13 2 -7 2
-19 0 -25z m37 17 c3 -8 1 -15 -4 -15 -6 0 -10 7 -10 15 0 8 2 15 4 15 2 0 6
-7 10 -15z m78 -45 c5 0 8 7 4 15 -3 8 -1 15 4 15 6 0 10 -4 10 -9 0 -5 3 -22
6 -38 5 -24 2 -29 -15 -29 -12 0 -21 6 -21 13 0 7 -5 13 -11 13 -6 0 -9 -7 -5
-15 3 -8 2 -15 -3 -15 -8 0 -21 33 -21 57 0 16 34 22 38 6 2 -7 8 -13 14 -13z
m-75 -2 c-3 -8 -6 -5 -6 6 -1 11 2 17 5 13 3 -3 4 -12 1 -19z m-20 -40 c-3 -8
-6 -5 -6 6 -1 11 2 17 5 13 3 -3 4 -12 1 -19z m33 -3 c0 -8 -4 -15 -10 -15 -5
0 -7 7 -4 15 4 8 8 15 10 15 2 0 4 -7 4 -15z m37 -37 c-3 -8 -6 -5 -6 6 -1 11
2 17 5 13 3 -3 4 -12 1 -19z m-20 -40 c-3 -8 -6 -5 -6 6 -1 11 2 17 5 13 3 -3
4 -12 1 -19z m33 2 c0 -11 -2 -20 -4 -20 -2 0 -6 9 -9 20 -3 11 -1 20 4 20 5
0 9 -9 9 -20z m-267 -30 c3 -11 1 -20 -4 -20 -5 0 -9 9 -9 20 0 11 2 20 4 20
2 0 6 -9 9 -20z m304 -12 c-3 -8 -6 -5 -6 6 -1 11 2 17 5 13 3 -3 4 -12 1 -19z
m-27 2 c0 -5 -5 -10 -11 -10 -5 0 -7 5 -4 10 3 6 8 10 11 10 2 0 4 -4 4 -10z
m-265 -29 c3 -5 1 -12 -5 -16 -5 -3 -10 1 -10 9 0 18 6 21 15 7z m272 -13 c-3
-8 -6 -5 -6 6 -1 11 2 17 5 13 3 -3 4 -12 1 -19z m37 0 c9 -34 7 -48 -5 -48
-5 0 -8 4 -5 9 4 5 2 21 -4 35 -5 14 -6 26 -1 26 5 0 11 -10 15 -22z m-26 -49
c-3 -8 -7 -3 -11 10 -4 17 -3 21 5 13 5 -5 8 -16 6 -23z m-71 -91 c-3 -8 -6
-5 -6 6 -1 11 2 17 5 13 3 -3 4 -12 1 -19z m60 0 c-3 -8 -6 -5 -6 6 -1 11 2
17 5 13 3 -3 4 -12 1 -19z"/>
<path fill="#FCEBCD" d="M1080 1790 c0 -5 5 -10 10 -10 6 0 10 5 10 10 0 6 -4 10 -10 10 -5 0
-10 -4 -10 -10z"/>
<path fill="#FCEBCD" d="M1120 1770 c0 -5 5 -10 10 -10 6 0 10 5 10 10 0 6 -4 10 -10 10 -5 0
-10 -4 -10 -10z"/>
<path fill="#FCEBCD" d="M810 1910 c0 -5 5 -10 10 -10 6 0 10 5 10 10 0 6 -4 10 -10 10 -5 0
-10 -4 -10 -10z"/>
<path fill="#FCEBCD" d="M930 1901 c0 -22 17 -37 28 -26 4 4 2 10 -5 12 -7 2 -9 11 -6 19 3 8
0 14 -6 14 -6 0 -11 -9 -11 -19z"/>
<path fill="#FCEBCD" d="M1180 1910 c0 -5 5 -10 11 -10 5 0 7 5 4 10 -3 6 -8 10 -11 10 -2 0
-4 -4 -4 -10z"/>
<path fill="#FCEBCD" d="M1210 1909 c0 -5 5 -7 10 -4 6 3 10 8 10 11 0 2 -4 4 -10 4 -5 0 -10
-5 -10 -11z"/>
<path fill="#FCEBCD" d="M500 1900 c0 -5 5 -10 10 -10 6 0 10 5 10 10 0 6 -4 10 -10 10 -5 0
-10 -4 -10 -10z"/>
<path fill="#FCEBCD" d="M1150 1900 c0 -5 5 -10 10 -10 6 0 10 5 10 10 0 6 -4 10 -10 10 -5 0
-10 -4 -10 -10z"/>
<path fill="#FCEBCD" d="M1245 1890 c3 -5 8 -10 11 -10 2 0 4 5 4 10 0 6 -5 10 -11 10 -5 0
-7 -4 -4 -10z"/>
<path fill="#FCEBCD" d="M540 1880 c0 -5 5 -10 11 -10 5 0 7 5 4 10 -3 6 -8 10 -11 10 -2 0
-4 -4 -4 -10z"/>
<path fill="#FCEBCD" d="M1186 1878 c3 -5 12 -7 19 -4 7 2 16 -5 19 -17 10 -38 7 -57 -11 -57
-12 0 -14 -3 -7 -10 11 -11 64 2 64 15 0 4 -4 4 -8 1 -4 -2 -14 15 -21 38 -10
36 -17 44 -37 44 -13 0 -21 -5 -18 -10z"/>
<path fill="#FCEBCD" d="M510 1870 c0 -5 5 -10 10 -10 6 0 10 5 10 10 0 6 -4 10 -10 10 -5 0
-10 -4 -10 -10z"/>
<path fill="#FCEBCD" d="M1155 1870 c3 -5 11 -10 16 -10 6 0 7 5 4 10 -3 6 -11 10 -16 10 -6
0 -7 -4 -4 -10z"/>
<path fill="#FCEBCD" d="M605 1860 c3 -5 8 -10 11 -10 2 0 4 5 4 10 0 6 -5 10 -11 10 -5 0 -7
-4 -4 -10z"/>
<path fill="#FCEBCD" d="M1250 1860 c0 -5 5 -10 10 -10 6 0 10 5 10 10 0 6 -4 10 -10 10 -5 0
-10 -4 -10 -10z"/>
<path fill="#FCEBCD" d="M1190 1850 c0 -5 -7 -7 -15 -4 -8 4 -15 1 -15 -5 0 -12 11 -14 34 -5
18 7 22 24 6 24 -5 0 -10 -4 -10 -10z"/>
<path fill="#FCEBCD" d="M640 1840 c0 -5 5 -10 11 -10 5 0 7 5 4 10 -3 6 -8 10 -11 10 -2 0
-4 -4 -4 -10z"/>
<path fill="#FCEBCD" d="M1200 1820 c0 -5 5 -10 10 -10 6 0 10 5 10 10 0 6 -4 10 -10 10 -5 0
-10 -4 -10 -10z"/>
<path fill="#FCEBCD" d="M680 1790 c0 -5 5 -10 11 -10 5 0 7 5 4 10 -3 6 -8 10 -11 10 -2 0
-4 -4 -4 -10z"/>
<path fill="#FCEBCD" d="M1240 1770 c0 -5 5 -10 10 -10 6 0 10 5 10 10 0 6 -4 10 -10 10 -5 0
-10 -4 -10 -10z"/>
<path fill="#FCEBCD" d="M1210 1760 c0 -5 5 -10 10 -10 6 0 10 5 10 10 0 6 -4 10 -10 10 -5 0
-10 -4 -10 -10z"/>
<path fill="#FCEBCD" d="M1250 1740 c0 -5 5 -10 10 -10 6 0 10 5 10 10 0 6 -4 10 -10 10 -5 0
-10 -4 -10 -10z"/>
<path fill="#FCEBCD" d="M1220 1730 c0 -5 5 -10 10 -10 6 0 10 5 10 10 0 6 -4 10 -10 10 -5 0
-10 -4 -10 -10z"/>
<path fill="#FCEBCD" d="M1160 1720 c0 -5 5 -10 10 -10 6 0 10 5 10 10 0 6 -4 10 -10 10 -5 0
-10 -4 -10 -10z"/>
<path fill="#FCEBCD" d="M610 1710 c0 -5 5 -10 10 -10 6 0 10 5 10 10 0 6 -4 10 -10 10 -5 0
-10 -4 -10 -10z"/>
<path fill="#FCEBCD" d="M1130 1710 c0 -5 5 -10 10 -10 6 0 10 5 10 10 0 6 -4 10 -10 10 -5 0
-10 -4 -10 -10z"/>
<path fill="#FCEBCD" d="M1240 1710 c-8 -5 -11 -13 -6 -17 5 -4 11 -2 13 5 3 6 9 10 14 6 5
-3 9 0 9 5 0 13 -10 14 -30 1z"/>
<path fill="#FCEBCD" d="M580 1700 c0 -5 5 -10 10 -10 6 0 10 5 10 10 0 6 -4 10 -10 10 -5 0
-10 -4 -10 -10z"/>
<path fill="#FCEBCD" d="M550 1686 c0 -8 5 -18 10 -21 6 -3 10 3 10 14 0 12 -4 21 -10 21 -5
0 -10 -6 -10 -14z"/>
<path fill="#FCEBCD" d="M1170 1690 c0 -5 5 -10 10 -10 6 0 10 5 10 10 0 6 -4 10 -10 10 -5 0
-10 -4 -10 -10z"/>
<path fill="#FCEBCD" d="M715 1670 c3 -5 8 -10 11 -10 2 0 4 5 4 10 0 6 -5 10 -11 10 -5 0 -7
-4 -4 -10z"/>
<path fill="#FCEBCD" d="M1235 1670 c3 -5 8 -10 11 -10 2 0 4 5 4 10 0 6 -5 10 -11 10 -5 0
-7 -4 -4 -10z"/>
<path fill="#FCEBCD" d="M720 1639 c0 -5 5 -7 10 -4 6 3 10 8 10 11 0 2 -4 4 -10 4 -5 0 -10
-5 -10 -11z"/>
<path fill="#FCEBCD" d="M1210 1640 c0 -5 5 -10 10 -10 6 0 10 5 10 10 0 6 -4 10 -10 10 -5 0
-10 -4 -10 -10z"/>
<path fill="#FCEBCD" d="M415 1630 c3 -5 8 -10 11 -10 2 0 4 5 4 10 0 6 -5 10 -11 10 -5 0 -7
-4 -4 -10z"/>
<path fill="#FCEBCD" d="M1180 1630 c0 -5 5 -10 10 -10 6 0 10 5 10 10 0 6 -4 10 -10 10 -5 0
-10 -4 -10 -10z"/>
<path fill="#FCEBCD" d="M755 1620 c3 -5 8 -10 11 -10 2 0 4 5 4 10 0 6 -5 10 -11 10 -5 0 -7
-4 -4 -10z"/>
<path fill="#FCEBCD" d="M1220 1610 c0 -5 5 -10 10 -10 6 0 10 5 10 10 0 6 -4 10 -10 10 -5 0
-10 -4 -10 -10z"/>
<path fill="#FCEBCD" d="M790 1600 c0 -5 5 -10 10 -10 6 0 10 5 10 10 0 6 -4 10 -10 10 -5 0
-10 -4 -10 -10z"/>
<path fill="#FCEBCD" d="M1190 1600 c0 -5 5 -10 10 -10 6 0 10 5 10 10 0 6 -4 10 -10 10 -5 0
-10 -4 -10 -10z"/>
<path fill="#FCEBCD" d="M360 1590 c0 -5 5 -10 11 -10 5 0 7 5 4 10 -3 6 -8 10 -11 10 -2 0
-4 -4 -4 -10z"/>
<path fill="#FCEBCD" d="M765 1590 c3 -5 8 -10 11 -10 2 0 4 5 4 10 0 6 -5 10 -11 10 -5 0 -7
-4 -4 -10z"/>
<path fill="#FCEBCD" d="M890 1560 c0 -5 5 -10 10 -10 6 0 10 5 10 10 0 6 -4 10 -10 10 -5 0
-10 -4 -10 -10z"/>
<path fill="#FCEBCD" d="M865 1550 c3 -5 8 -10 11 -10 2 0 4 5 4 10 0 6 -5 10 -11 10 -5 0 -7
-4 -4 -10z"/>
<path fill="#FCEBCD" d="M1230 1550 c0 -5 5 -10 10 -10 6 0 10 5 10 10 0 6 -4 10 -10 10 -5 0
-10 -4 -10 -10z"/>
<path fill="#FCEBCD" d="M930 1540 c0 -5 5 -10 11 -10 5 0 7 5 4 10 -3 6 -8 10 -11 10 -2 0
-4 -4 -4 -10z"/>
<path fill="#FCEBCD" d="M900 1529 c0 -5 5 -7 10 -4 6 3 10 8 10 11 0 2 -4 4 -10 4 -5 0 -10
-5 -10 -11z"/>
<path fill="#FCEBCD" d="M1240 1520 c0 -5 5 -10 10 -10 6 0 10 5 10 10 0 6 -4 10 -10 10 -5 0
-10 -4 -10 -10z"/>
<path fill="#FCEBCD" d="M1216 1498 c11 -38 24 -56 20 -28 -3 14 -5 31 -5 38 -1 6 -6 12 -12
12 -6 0 -8 -9 -3 -22z"/>
<path fill="#FCEBCD" d="M1150 1500 c0 -5 5 -10 10 -10 6 0 10 5 10 10 0 6 -4 10 -10 10 -5 0
-10 -4 -10 -10z"/>
<path fill="#FCEBCD" d="M450 1483 c0 -30 12 -63 22 -63 6 0 8 7 4 15 -3 8 -1 15 4 15 6 0 10
-7 10 -15 0 -8 5 -15 10 -15 13 0 13 37 0 45 -6 4 -8 10 -5 15 3 5 1 11 -5 15
-5 3 -10 -3 -10 -15 0 -12 -5 -18 -10 -15 -6 4 -8 10 -5 15 3 5 1 11 -5 15 -5
3 -10 -2 -10 -12z"/>
<path fill="#FCEBCD" d="M1250 1490 c0 -5 5 -10 10 -10 6 0 10 5 10 10 0 6 -4 10 -10 10 -5 0
-10 -4 -10 -10z"/>
<path fill="#FCEBCD" d="M420 1471 c0 -13 -7 -21 -17 -21 -12 0 -14 -3 -7 -10 7 -7 20 -7 34
-2 16 6 19 11 12 16 -7 4 -10 11 -7 16 3 5 1 11 -5 15 -5 3 -10 -3 -10 -14z"/>
<path fill="#FCEBCD" d="M945 1480 c3 -5 8 -10 11 -10 2 0 4 5 4 10 0 6 -5 10 -11 10 -5 0 -7
-4 -4 -10z"/>
<path fill="#FCEBCD" d="M1192 1471 c1 -14 10 -27 18 -29 13 -5 13 -3 0 13 -8 10 -13 20 -12
22 2 3 1 8 -3 11 -4 4 -5 -4 -3 -17z"/>
<path fill="#FCEBCD" d="M390 1470 c0 -5 5 -10 10 -10 6 0 10 5 10 10 0 6 -4 10 -10 10 -5 0
-10 -4 -10 -10z"/>
<path fill="#FCEBCD" d="M510 1470 c0 -5 5 -10 10 -10 6 0 10 5 10 10 0 6 -4 10 -10 10 -5 0
-10 -4 -10 -10z"/>
<path fill="#FCEBCD" d="M910 1469 c0 -5 5 -7 10 -4 6 3 10 8 10 11 0 2 -4 4 -10 4 -5 0 -10
-5 -10 -11z"/>
<path fill="#FCEBCD" d="M330 1457 c0 -5 6 -7 13 -4 6 2 17 -5 24 -17 12 -20 12 -20 13 6 0
24 -4 27 -25 26 -14 -1 -25 -6 -25 -11z"/>
<path fill="#FCEBCD" d="M613 1445 c0 -14 3 -25 8 -25 5 0 9 9 9 19 0 11 -4 22 -9 25 -5 3 -8
-6 -8 -19z"/>
<path fill="#FCEBCD" d="M1255 1460 c3 -5 8 -10 11 -10 2 0 4 5 4 10 0 6 -5 10 -11 10 -5 0
-7 -4 -4 -10z"/>
<path fill="#FCEBCD" d="M305 1450 c3 -5 8 -10 11 -10 2 0 4 5 4 10 0 6 -5 10 -11 10 -5 0 -7
-4 -4 -10z"/>
<path fill="#FCEBCD" d="M550 1441 c0 -11 4 -22 9 -25 5 -3 9 6 9 19 0 14 -4 25 -9 25 -5 0
-9 -9 -9 -19z"/>
<path fill="#FCEBCD" d="M580 1440 c0 -11 4 -20 8 -20 4 0 8 9 9 20 1 11 -2 20 -8 20 -5 0 -9
-9 -9 -20z"/>
<path fill="#FCEBCD" d="M705 1450 c3 -5 8 -10 11 -10 2 0 4 5 4 10 0 6 -5 10 -11 10 -5 0 -7
-4 -4 -10z"/>
<path fill="#FCEBCD" d="M950 1450 c0 -5 5 -10 10 -10 6 0 10 5 10 10 0 6 -4 10 -10 10 -5 0
-10 -4 -10 -10z"/>
<path fill="#FCEBCD" d="M520 1440 c0 -5 5 -10 10 -10 6 0 10 5 10 10 0 6 -4 10 -10 10 -5 0
-10 -4 -10 -10z"/>
<path fill="#FCEBCD" d="M640 1440 c0 -5 5 -10 10 -10 6 0 10 5 10 10 0 6 -4 10 -10 10 -5 0
-10 -4 -10 -10z"/>
<path fill="#FCEBCD" d="M770 1440 c0 -5 5 -10 11 -10 5 0 7 5 4 10 -3 6 -8 10 -11 10 -2 0
-4 -4 -4 -10z"/>
<path fill="#FCEBCD" d="M210 1430 c0 -5 5 -10 10 -10 6 0 10 5 10 10 0 6 -4 10 -10 10 -5 0
-10 -4 -10 -10z"/>
<path fill="#FCEBCD" d="M980 1430 c0 -5 5 -10 11 -10 5 0 7 5 4 10 -3 6 -8 10 -11 10 -2 0
-4 -4 -4 -10z"/>
<path fill="#FCEBCD" d="M1230 1430 c0 -5 5 -10 11 -10 5 0 7 5 4 10 -3 6 -8 10 -11 10 -2 0
-4 -4 -4 -10z"/>
<path fill="#FCEBCD" d="M310 1420 c0 -5 5 -10 10 -10 6 0 10 5 10 10 0 6 -4 10 -10 10 -5 0
-10 -4 -10 -10z"/>
<path fill="#FCEBCD" d="M1080 1420 c0 -5 5 -10 10 -10 6 0 10 5 10 10 0 6 -4 10 -10 10 -5 0
-10 -4 -10 -10z"/>
<path fill="#FCEBCD" d="M1200 1420 c0 -5 5 -10 10 -10 6 0 10 5 10 10 0 6 -4 10 -10 10 -5 0
-10 -4 -10 -10z"/>
<path fill="#FCEBCD" d="M405 1410 c3 -5 8 -10 11 -10 2 0 4 5 4 10 0 6 -5 10 -11 10 -5 0 -7
-4 -4 -10z"/>
<path fill="#FCEBCD" d="M650 1410 c0 -5 5 -10 11 -10 5 0 7 5 4 10 -3 6 -8 10 -11 10 -2 0
-4 -4 -4 -10z"/>
<path fill="#FCEBCD" d="M1170 1410 c0 -5 5 -10 11 -10 5 0 7 5 4 10 -3 6 -8 10 -11 10 -2 0
-4 -4 -4 -10z"/>
<path fill="#FCEBCD" d="M340 1399 c0 -11 21 -11 39 0 9 6 5 9 -13 9 -14 0 -26 -4 -26 -9z"/>
<path fill="#FCEBCD" d="M470 1400 c0 -5 5 -10 11 -10 5 0 7 5 4 10 -3 6 -8 10 -11 10 -2 0
-4 -4 -4 -10z"/>
<path fill="#FCEBCD" d="M504 1365 c3 -27 3 -42 0 -32 -5 17 -24 24 -24 9 0 -4 -9 -8 -20 -8
-11 0 -20 4 -20 8 0 4 7 8 16 8 8 0 12 5 9 11 -4 6 -13 8 -21 5 -8 -3 -14 1
-14 9 0 8 -5 15 -11 15 -6 0 -9 -7 -5 -15 3 -9 0 -15 -9 -15 -9 0 -16 -10 -16
-22 -1 -17 -2 -19 -6 -5 -2 9 -8 17 -13 17 -5 0 -7 7 -4 15 4 8 1 15 -5 15 -6
0 -12 -10 -12 -22 -1 -17 -2 -19 -6 -5 -8 29 -24 19 -18 -12 5 -27 -13 -48
-37 -43 -5 1 -8 -3 -8 -9 0 -6 7 -9 15 -5 9 3 15 0 15 -9 0 -8 7 -15 15 -15 9
0 20 -11 25 -25 14 -38 20 -30 16 23 -3 26 -2 39 1 30 2 -10 9 -18 14 -18 5 0
9 8 9 18 0 13 2 14 9 3 5 -7 13 -11 19 -7 6 3 16 -2 22 -11 11 -17 11 -17 6 0
-3 11 0 17 9 17 8 0 15 -8 16 -17 1 -12 4 -9 9 7 6 21 8 22 14 8 6 -13 13 -15
33 -7 32 12 33 12 33 -6 0 -8 4 -15 10 -15 5 0 7 7 4 15 -4 10 0 15 16 15 11
0 18 4 15 10 -7 11 23 2 43 -13 7 -5 15 -8 17 -5 8 7 -16 68 -26 68 -4 0 -6
-8 -2 -17 5 -15 3 -15 -10 2 -8 10 -13 25 -10 32 3 7 0 13 -6 13 -6 0 -11 -8
-11 -19 0 -10 -9 -21 -20 -24 -13 -3 -20 0 -20 9 0 20 -20 17 -21 -3 0 -10 -7
0 -15 21 -21 57 -27 58 -20 1z m-84 -31 c0 -8 -5 -12 -10 -9 -6 4 -8 11 -5 16
9 14 15 11 15 -7z"/>
<path fill="#FCEBCD" d="M590 1400 c0 -5 5 -10 11 -10 5 0 7 5 4 10 -3 6 -8 10 -11 10 -2 0
-4 -4 -4 -10z"/>
<path fill="#FCEBCD" d="M620 1400 c0 -5 5 -10 10 -10 6 0 10 5 10 10 0 6 -4 10 -10 10 -5 0
-10 -4 -10 -10z"/>
<path fill="#FCEBCD" d="M870 1400 c0 -5 5 -10 11 -10 5 0 7 5 4 10 -3 6 -8 10 -11 10 -2 0
-4 -4 -4 -10z"/>
<path fill="#FCEBCD" d="M995 1400 c3 -5 8 -10 11 -10 2 0 4 5 4 10 0 6 -5 10 -11 10 -5 0 -7
-4 -4 -10z"/>
<path fill="#FCEBCD" d="M1147 1390 c3 -11 9 -20 13 -20 5 0 6 9 3 20 -3 11 -9 20 -13 20 -5
0 -6 -9 -3 -20z"/>
<path fill="#FCEBCD" d="M440 1390 c0 -5 5 -10 10 -10 6 0 10 5 10 10 0 6 -4 10 -10 10 -5 0
-10 -4 -10 -10z"/>
<path fill="#FCEBCD" d="M560 1390 c0 -5 5 -10 10 -10 6 0 10 5 10 10 0 6 -4 10 -10 10 -5 0
-10 -4 -10 -10z"/>
<path fill="#FCEBCD" d="M840 1382 c0 -10 3 -21 6 -24 8 -9 44 3 44 14 0 6 -7 8 -15 4 -9 -3
-15 0 -15 9 0 8 -4 15 -10 15 -5 0 -10 -8 -10 -18z"/>
<path fill="#FCEBCD" d="M1210 1390 c0 -5 5 -10 11 -10 5 0 7 5 4 10 -3 6 -8 10 -11 10 -2 0
-4 -4 -4 -10z"/>
<path fill="#FCEBCD" d="M380 1380 c0 -5 5 -10 11 -10 5 0 7 5 4 10 -3 6 -8 10 -11 10 -2 0
-4 -4 -4 -10z"/>
<path fill="#FCEBCD" d="M530 1380 c0 -5 5 -10 10 -10 6 0 10 5 10 10 0 6 -4 10 -10 10 -5 0
-10 -4 -10 -10z"/>
<path fill="#FCEBCD" d="M780 1380 c0 -5 5 -10 10 -10 6 0 10 5 10 10 0 6 -4 10 -10 10 -5 0
-10 -4 -10 -10z"/>
<path fill="#FCEBCD" d="M810 1376 c0 -8 -6 -16 -12 -19 -8 -2 -9 -8 -4 -13 5 -5 11 -4 13 3
2 7 12 9 21 6 14 -6 15 -4 5 9 -7 8 -10 18 -6 21 3 4 1 7 -5 7 -7 0 -12 -6
-12 -14z"/>
<path fill="#FCEBCD" d="M900 1380 c0 -5 5 -10 11 -10 5 0 7 5 4 10 -3 6 -8 10 -11 10 -2 0
-4 -4 -4 -10z"/>
<path fill="#FCEBCD" d="M1180 1380 c0 -5 5 -10 10 -10 6 0 10 5 10 10 0 6 -4 10 -10 10 -5 0
-10 -4 -10 -10z"/>
<path fill="#FCEBCD" d="M470 1370 c0 -5 7 -10 16 -10 8 0 12 5 9 10 -3 6 -10 10 -16 10 -5 0
-9 -4 -9 -10z"/>
<path fill="#FCEBCD" d="M755 1370 c3 -5 8 -10 11 -10 2 0 4 5 4 10 0 6 -5 10 -11 10 -5 0 -7
-4 -4 -10z"/>
<path fill="#FCEBCD" d="M1005 1370 c3 -5 8 -10 11 -10 2 0 4 5 4 10 0 6 -5 10 -11 10 -5 0
-7 -4 -4 -10z"/>
<path fill="#FCEBCD" d="M570 1360 c0 -5 5 -10 10 -10 6 0 10 5 10 10 0 6 -4 10 -10 10 -5 0
-10 -4 -10 -10z"/>
<path fill="#FCEBCD" d="M660 1350 c0 -5 5 -10 10 -10 6 0 10 5 10 10 0 6 -4 10 -10 10 -5 0
-10 -4 -10 -10z"/>
<path fill="#FCEBCD" d="M1140 1350 c-8 -5 -11 -12 -7 -17 5 -4 12 -2 16 6 6 9 10 7 14 -8 3
-12 11 -21 17 -21 9 0 9 4 -1 17 -8 9 -13 19 -11 22 6 10 -13 11 -28 1z"/>
<path fill="#FCEBCD" d="M1190 1350 c0 -5 5 -10 10 -10 6 0 10 5 10 10 0 6 -4 10 -10 10 -5 0
-10 -4 -10 -10z"/>
<path fill="#FCEBCD" d="M730 1332 c0 -12 -6 -22 -14 -22 -9 0 -12 -8 -8 -25 2 -14 9 -25 16
-25 19 0 41 18 33 27 -5 4 -12 1 -16 -6 -6 -9 -11 -10 -15 -2 -7 12 33 32 47
24 4 -2 7 7 7 21 0 14 -5 26 -10 26 -6 0 -10 -6 -8 -12 2 -7 -2 -14 -7 -15 -6
-2 -10 1 -10 6 0 5 -3 13 -7 17 -5 4 -8 -2 -8 -14z"/>
<path fill="#FCEBCD" d="M885 1340 c3 -5 8 -10 11 -10 2 0 4 5 4 10 0 6 -5 10 -11 10 -5 0 -7
-4 -4 -10z"/>
<path fill="#FCEBCD" d="M300 1330 c0 -5 5 -10 11 -10 5 0 7 5 4 10 -3 6 -8 10 -11 10 -2 0
-4 -4 -4 -10z"/>
<path fill="#FCEBCD" d="M700 1330 c0 -5 5 -10 10 -10 6 0 10 5 10 10 0 6 -4 10 -10 10 -5 0
-10 -4 -10 -10z"/>
<path fill="#FCEBCD" d="M820 1330 c0 -5 5 -10 10 -10 6 0 10 5 10 10 0 6 -4 10 -10 10 -5 0
-10 -4 -10 -10z"/>
<path fill="#FCEBCD" d="M858 1310 c2 -17 8 -33 13 -36 5 -3 7 5 5 18 -3 13 -5 29 -5 36 -1 6
-5 12 -9 12 -5 0 -7 -14 -4 -30z"/>
<path fill="#FCEBCD" d="M1105 1330 c3 -5 8 -10 11 -10 2 0 4 5 4 10 0 6 -5 10 -11 10 -5 0
-7 -4 -4 -10z"/>
<path fill="#FCEBCD" d="M675 1313 c4 -10 9 -33 12 -50 3 -18 9 -33 14 -33 4 0 4 14 -1 30
-10 35 -10 35 -10 55 0 8 -5 15 -11 15 -7 0 -8 -7 -4 -17z"/>
<path fill="#FCEBCD" d="M795 1320 c3 -5 8 -10 11 -10 2 0 4 5 4 10 0 6 -5 10 -11 10 -5 0 -7
-4 -4 -10z"/>
<path fill="#FCEBCD" d="M1040 1320 c0 -5 5 -10 11 -10 5 0 7 5 4 10 -3 6 -8 10 -11 10 -2 0
-4 -4 -4 -10z"/>
<path fill="#FCEBCD" d="M890 1309 c0 -5 5 -7 10 -4 6 3 10 8 10 11 0 2 -4 4 -10 4 -5 0 -10
-5 -10 -11z"/>
<path fill="#FCEBCD" d="M830 1300 c0 -5 5 -10 10 -10 6 0 10 5 10 10 0 6 -4 10 -10 10 -5 0
-10 -4 -10 -10z"/>
<path fill="#FCEBCD" d="M805 1290 c3 -5 8 -10 11 -10 2 0 4 5 4 10 0 6 -5 10 -11 10 -5 0 -7
-4 -4 -10z"/>
<path fill="#FCEBCD" d="M1170 1290 c0 -5 5 -10 10 -10 6 0 10 5 10 10 0 6 -4 10 -10 10 -5 0
-10 -4 -10 -10z"/>
<path fill="#FCEBCD" d="M620 1280 c0 -5 5 -10 10 -10 6 0 10 5 10 10 0 6 -4 10 -10 10 -5 0
-10 -4 -10 -10z"/>
<path fill="#FCEBCD" d="M777 1270 c3 -11 9 -20 13 -20 5 0 6 9 3 20 -3 11 -9 20 -13 20 -5 0
-6 -9 -3 -20z"/>
<path fill="#FCEBCD" d="M840 1270 c0 -5 5 -10 10 -10 6 0 10 5 10 10 0 6 -4 10 -10 10 -5 0
-10 -4 -10 -10z"/>
<path fill="#FCEBCD" d="M285 1260 c3 -5 8 -10 11 -10 2 0 4 5 4 10 0 6 -5 10 -11 10 -5 0 -7
-4 -4 -10z"/>
<path fill="#FCEBCD" d="M810 1259 c0 -5 5 -7 10 -4 6 3 10 8 10 11 0 2 -4 4 -10 4 -5 0 -10
-5 -10 -11z"/>
<path fill="#FCEBCD" d="M750 1250 c0 -5 5 -10 10 -10 6 0 10 5 10 10 0 6 -4 10 -10 10 -5 0
-10 -4 -10 -10z"/>
<path fill="#FCEBCD" d="M870 1250 c0 -5 5 -10 10 -10 6 0 10 5 10 10 0 6 -4 10 -10 10 -5 0
-10 -4 -10 -10z"/>
<path fill="#FCEBCD" d="M320 1240 c0 -5 5 -10 10 -10 6 0 10 5 10 10 0 6 -4 10 -10 10 -5 0
-10 -4 -10 -10z"/>
<path fill="#FCEBCD" d="M725 1240 c3 -5 8 -10 11 -10 2 0 4 5 4 10 0 6 -5 10 -11 10 -5 0 -7
-4 -4 -10z"/>
<path fill="#FCEBCD" d="M840 1240 c0 -5 5 -10 10 -10 6 0 10 5 10 10 0 6 -4 10 -10 10 -5 0
-10 -4 -10 -10z"/>
<path fill="#FCEBCD" d="M295 1230 c3 -5 8 -10 11 -10 2 0 4 5 4 10 0 6 -5 10 -11 10 -5 0 -7
-4 -4 -10z"/>
<path fill="#FCEBCD" d="M665 1230 c3 -5 8 -10 11 -10 2 0 4 5 4 10 0 6 -5 10 -11 10 -5 0 -7
-4 -4 -10z"/>
<path fill="#FCEBCD" d="M330 1210 c0 -5 5 -10 10 -10 6 0 10 5 10 10 0 6 -4 10 -10 10 -5 0
-10 -4 -10 -10z"/>
<path fill="#FCEBCD" d="M305 1200 c3 -5 8 -10 11 -10 2 0 4 5 4 10 0 6 -5 10 -11 10 -5 0 -7
-4 -4 -10z"/>
<path fill="#FCEBCD" d="M335 1180 c3 -5 8 -10 11 -10 2 0 4 5 4 10 0 6 -5 10 -11 10 -5 0 -7
-4 -4 -10z"/>
<path fill="#FCEBCD" d="M590 1150 c0 -5 5 -10 11 -10 5 0 7 5 4 10 -3 6 -8 10 -11 10 -2 0
-4 -4 -4 -10z"/>
<path fill="#FCEBCD" d="M520 1040 c0 -5 5 -10 11 -10 5 0 7 5 4 10 -3 6 -8 10 -11 10 -2 0
-4 -4 -4 -10z"/>
<path fill="#FCEBCD" d="M1203 513 c3 -10 8 -31 12 -48 6 -28 5 -29 -8 -10 -8 10 -13 25 -10
32 3 7 -2 13 -10 13 -10 0 -13 -7 -10 -20 9 -33 -33 -26 -45 8 l-10 27 -2 -35
c-1 -19 -4 -27 -7 -17 -9 34 -25 17 -20 -20 3 -21 3 -30 1 -20 -3 9 -14 17
-24 17 -11 0 -23 11 -29 28 l-11 27 3 -32 c2 -18 0 -33 -5 -33 -4 0 -8 4 -8 9
0 5 -11 9 -25 9 -14 0 -25 -5 -25 -10 0 -6 9 -8 19 -5 15 4 20 -2 25 -31 3
-20 3 -38 1 -41 -3 -2 -5 3 -5 12 0 10 -8 17 -20 17 -11 0 -20 5 -20 10 0 17
-18 11 -22 -7 -3 -15 -5 -14 -10 5 -4 15 -2 22 8 22 8 0 14 4 14 10 0 6 -9 6
-26 0 -14 -6 -30 -8 -35 -4 -5 3 -9 0 -9 -5 0 -6 7 -11 15 -11 8 0 15 -4 15
-10 0 -5 -7 -7 -15 -4 -8 4 -15 2 -15 -4 0 -5 9 -12 20 -15 12 -3 20 -13 19
-24 -1 -17 -2 -17 -6 0 -3 11 -11 16 -19 13 -10 -4 -16 4 -21 24 -3 17 -10 30
-15 30 -6 0 -8 -7 -5 -15 4 -8 2 -17 -3 -20 -6 -4 -10 1 -10 9 0 22 -20 20
-20 -1 -1 -10 -8 -3 -17 17 -8 19 -17 30 -20 23 -2 -7 -11 -9 -19 -6 -8 3 -14
0 -14 -6 0 -6 -6 -8 -14 -5 -7 3 -20 -2 -29 -11 -9 -9 -18 -11 -22 -6 -3 6
-12 8 -20 4 -9 -3 -15 1 -15 11 0 9 -5 16 -11 16 -6 0 -9 -7 -5 -15 3 -8 1
-15 -4 -15 -6 0 -10 5 -10 10 0 6 -5 10 -11 10 -5 0 -8 -4 -4 -9 3 -5 1 -12
-5 -16 -5 -3 -10 1 -10 9 0 9 -4 16 -10 16 -5 0 -10 -4 -10 -10 0 -5 -7 -7
-15 -4 -8 4 -15 1 -15 -5 0 -6 -7 -8 -15 -5 -18 7 -19 0 -4 -27 5 -11 15 -16
21 -13 7 4 8 3 4 -5 -4 -7 10 -28 34 -51 23 -22 43 -40 45 -40 2 0 16 -11 31
-25 15 -14 33 -25 39 -25 7 0 15 -7 19 -15 3 -8 12 -15 21 -15 8 0 15 -3 15
-7 0 -11 51 -33 61 -27 5 3 9 -2 9 -11 0 -11 5 -15 15 -11 9 3 18 -1 21 -9 6
-14 61 -14 84 0 6 3 10 -1 10 -9 0 -9 5 -16 11 -16 6 0 9 7 5 15 -3 8 -1 15 4
15 5 0 12 -11 16 -25 3 -14 10 -25 15 -25 5 0 4 11 -1 25 -6 15 -6 26 0 30 6
4 10 -1 10 -9 0 -9 5 -16 11 -16 6 0 9 7 6 15 -4 8 -2 17 3 20 6 4 10 -4 10
-17 1 -22 1 -22 15 -4 13 17 15 18 15 3 0 -9 -4 -17 -10 -17 -5 0 -10 -5 -10
-11 0 -6 7 -9 15 -5 9 3 15 0 15 -9 0 -8 4 -15 10 -15 6 0 8 15 4 36 -4 25 -2
34 5 29 6 -3 9 -10 6 -15 -9 -15 12 -21 39 -11 22 9 25 7 28 -17 2 -18 9 -27
20 -26 11 1 19 -8 23 -27 4 -16 11 -29 17 -29 6 0 8 7 4 15 -3 8 -1 15 4 15 5
0 11 -8 13 -17 3 -10 4 100 4 243 l-1 262 -23 -9 c-18 -6 -23 -5 -23 6 0 8 -5
15 -11 15 -6 0 -8 -8 -6 -17z m41 -34 c-3 -5 -10 -7 -15 -3 -5 3 -7 10 -3 15
3 5 10 7 15 3 5 -3 7 -10 3 -15z m6 -39 c0 -11 -2 -20 -4 -20 -2 0 -6 9 -9 20
-3 11 -1 20 4 20 5 0 9 -9 9 -20z m-123 -22 c-3 -8 -6 -5 -6 6 -1 11 2 17 5
13 3 -3 4 -12 1 -19z m41 -38 c0 -9 -3 -7 -8 5 -5 11 -8 29 -8 40 0 16 2 15 8
-5 4 -14 8 -32 8 -40z m-93 40 c3 -5 1 -10 -4 -10 -6 0 -11 5 -11 10 0 6 2 10
4 10 3 0 8 -4 11 -10z m-280 -20 c3 -6 -1 -7 -9 -4 -18 7 -21 14 -7 14 6 0 13
-4 16 -10z m462 -12 c-3 -8 -6 -5 -6 6 -1 11 2 17 5 13 3 -3 4 -12 1 -19z
m-150 -10 c-3 -8 -6 -5 -6 6 -1 11 2 17 5 13 3 -3 4 -12 1 -19z m-57 -8 c0 -5
-2 -10 -4 -10 -3 0 -8 5 -11 10 -3 6 -1 10 4 10 6 0 11 -4 11 -10z m-80 -50
c0 -5 -2 -10 -4 -10 -3 0 -8 5 -11 10 -3 6 -1 10 4 10 6 0 11 -4 11 -10z m-83
-192 c-3 -8 -6 -5 -6 6 -1 11 2 17 5 13 3 -3 4 -12 1 -19z m323 -43 c0 -8 -4
-15 -10 -15 -5 0 -7 7 -4 15 4 8 8 15 10 15 2 0 4 -7 4 -15z"/>
<path fill="#FCEBCD" d="M1150 480 c0 -5 5 -10 10 -10 6 0 10 5 10 10 0 6 -4 10 -10 10 -5 0
-10 -4 -10 -10z"/>
<path fill="#FCEBCD" d="M1060 460 c0 -5 5 -10 10 -10 6 0 10 5 10 10 0 6 -4 10 -10 10 -5 0
-10 -4 -10 -10z"/>
<path fill="#FCEBCD" d="M760 450 c0 -5 5 -10 11 -10 5 0 7 5 4 10 -3 6 -8 10 -11 10 -2 0 -4
-4 -4 -10z"/>
<path fill="#FCEBCD" d="M820 430 c0 -5 5 -10 10 -10 6 0 10 5 10 10 0 6 -4 10 -10 10 -5 0
-10 -4 -10 -10z"/>
<path fill="#FCEBCD" d="M980 410 c0 -5 5 -10 10 -10 6 0 10 5 10 10 0 6 -4 10 -10 10 -5 0
-10 -4 -10 -10z"/>
<path fill="#FCEBCD" d="M935 90 c3 -5 8 -10 11 -10 2 0 4 5 4 10 0 6 -5 10 -11 10 -5 0 -7
-4 -4 -10z"/>
<path fill="#FCEBCD" d="M1030 80 c0 -5 5 -10 10 -10 6 0 10 5 10 10 0 6 -4 10 -10 10 -5 0
-10 -4 -10 -10z"/>
<path fill="#FCEBCD" d="M1150 80 c0 -5 5 -10 10 -10 6 0 10 5 10 10 0 6 -4 10 -10 10 -5 0
-10 -4 -10 -10z"/>
<path fill="#FCEBCD" d="M1125 70 c3 -5 8 -10 11 -10 2 0 4 5 4 10 0 6 -5 10 -11 10 -5 0 -7
-4 -4 -10z"/>
<path fill="#FCEBCD" d="M1065 60 c3 -5 8 -10 11 -10 2 0 4 5 4 10 0 6 -5 10 -11 10 -5 0 -7
-4 -4 -10z"/>
<path fill="#FCEBCD" d="M1160 50 c0 -5 5 -10 10 -10 6 0 10 5 10 10 0 6 -4 10 -10 10 -5 0
-10 -4 -10 -10z"/>
<path fill="#FCEBCD" d="M1195 30 c3 -5 11 -10 16 -10 6 0 7 5 4 10 -3 6 -11 10 -16 10 -6 0
-7 -4 -4 -10z"/>
</g>
</svg>
