<?xml version="1.0" encoding="utf-8"?><!-- Generator: Adobe Illustrator 23.0.3, SVG Export Plug-In . SVG Version: 6.00 Build 0)  --><svg id="Calque_1" style="enable-background:new 0 0 330.8 315.6;" version="1.1" viewBox="0 0 330.8 315.6" x="0px" xml:space="preserve" xmlns="http://www.w3.org/2000/svg" xmlns:cc="http://creativecommons.org/ns#" xmlns:dc="http://purl.org/dc/elements/1.1/" xmlns:openbadges="http://openbadges.org" xmlns:rdf="http://www.w3.org/1999/02/22-rdf-syntax-ns#" xmlns:xlink="http://www.w3.org/1999/xlink" y="0px"><openbadges:assertion verify="http://backpack.openbadges.org/baker?assertion=https://data.v2019.oqs-cdn.com/openbadges/earner_07286K.json"/>
<style type="text/css">
	.st0{fill:none;stroke:#B1DAEC;stroke-width:18.2;stroke-linecap:round;stroke-linejoin:round;}
	.st1{fill:#363940;}
	.st2{fill:#B1DAEC;}
	.st3{fill:#F4E20A;}
	.st4{font-family:'Aller-Bold';}
	.st5{font-size:40px;}
	.st6{fill:none;}
	.st7{fill:#2B7883;}
	.st8{fill:#2D9E9F;}
	.st9{fill:#309751;}
	.st10{fill:#63BC51;}
	.st11{fill:#FFFFFF;}
	.st12{font-family:'Aller';}
	.st13{font-size:22.3159px;}
	.st14{enable-background:new    ;}
	.st15{fill:#76909D;}
</style>
<g transform="translate(2.3292009,28.835168)">
	<path class="st0" d="M24.4-19.7h277.4c5.5,0,10,4.5,10,10v277.4c0,5.5-4.5,10-10,10H24.4c-5.5,0-10-4.5-10-10V-9.7   C14.4-15.3,18.9-19.7,24.4-19.7z"/>
	<path class="st1" d="M26.3-17.6h273.5c5.4,0,9.8,4.4,9.8,9.8v273.5c0,5.4-4.4,9.8-9.8,9.8H26.3c-5.4,0-9.8-4.4-9.8-9.8V-7.8   C16.5-13.2,20.9-17.6,26.3-17.6z"/>
	<rect class="st2" height="61.6" width="330.8" x="-2.3" y="112.1"/>
	<g transform="translate(202.64113,-178.92971)">
		<path class="st3" d="M42.1,418.9l-14.2-7.5l-14.2,7.5l2.8-15.8L4.9,391.8l15.9-2.3l7.1-14.4l7.1,14.4l15.9,2.3L39.4,403    L42.1,418.9z"/>
		<path class="st3" d="M-92.8,418.9l-14.2-7.5l-14.2,7.5l2.8-15.8l-11.5-11.2l15.9-2.3l7.1-14.4l7.1,14.4l15.9,2.3L-95.6,403    L-92.8,418.9z"/>
		<path class="st3" d="M-25.4,418.9l-14.2-7.5l-14.2,7.5L-51,403l-11.5-11.2l15.9-2.3l7.1-14.4l7.1,14.4l15.9,2.3L-28.1,403    L-25.4,418.9z"/>
	</g>
	<text class="st1 st4 st5" transform="matrix(1 0 0 1 68.122 155.5158)">CONFIRME</text>
	<g transform="translate(-1088.9692,73.621252)">
		<g transform="matrix(1.2397708,0,0,1.2397708,504.19692,99.467457)">
			<rect class="st6" height="54.8" width="206.8" x="495.5" y="-117.5"/>
			<g transform="matrix(2.4262392,0,0,-2.4262392,580.95999,237.90454)">
				<path class="st7" d="M-19.1,138.8l-0.8-0.8l-7.6-7.5c-0.2-0.2-0.5-0.2-0.7,0l-1.5,1.5c-0.2,0.2-0.2,0.5,0,0.7l6.2,6.2      C-23.4,138.8-19.1,138.8-19.1,138.8z"/>
			</g>
			<g transform="matrix(2.4262392,0,0,-2.4262392,580.95999,237.90454)">
				<path class="st8" d="M-19.1,138.8l3.4-3.4c0.2-0.2,0.2-0.5,0-0.7l-1.5-1.5c-0.2-0.2-0.5-0.2-0.7,0l-5.5,5.5      C-23.4,138.8-19.1,138.8-19.1,138.8z"/>
			</g>
			<g transform="matrix(2.4262392,0,0,-2.4262392,553.68858,241.6885)">
				<path class="st9" d="M-19.1,138.8l0.8,0.8l7.4,7.4c0.2,0.2,0.5,0.2,0.7,0l1.5-1.4c0.2-0.2,0.2-0.5,0-0.7l-6-6      C-14.8,138.8-19.1,138.8-19.1,138.8z"/>
			</g>
			<g transform="matrix(2.4262392,0,0,-2.4262392,553.67911,241.70961)">
				<path class="st10" d="M-19.1,138.8l-3.4,3.4c-0.2,0.2-0.2,0.5,0,0.7l1.5,1.5c0.2,0.2,0.5,0.2,0.7,0l5.5-5.5      C-14.8,138.8-19.1,138.8-19.1,138.8z"/>
			</g>
			<g transform="matrix(2.4262392,0,0,-2.4262392,606.99717,248.15904)">
				<path class="st11" d="M-19.1,138.8c0.9,0,1.5,0.3,1.9,0.9c0.4,0.6,0.6,1.4,0.6,2.5c0,1.1-0.2,1.9-0.6,2.5      c-0.4,0.6-1.1,0.9-1.9,0.9s-1.5-0.3-1.9-0.9c-0.4-0.6-0.6-1.4-0.6-2.5c0-1.1,0.2-1.9,0.6-2.5C-20.6,139.1-20,138.8-19.1,138.8       M-19.1,137.3c-0.8,0-1.4,0.1-2,0.4c-0.6,0.2-1,0.6-1.4,1c-0.4,0.4-0.7,1-0.8,1.5c-0.2,0.6-0.3,1.2-0.3,1.9      c0,0.7,0.1,1.3,0.3,1.9c0.2,0.6,0.5,1.1,0.8,1.5c0.4,0.4,0.8,0.8,1.4,1c0.6,0.3,1.2,0.4,2,0.4c0.8,0,1.4-0.1,2-0.4      c0.6-0.3,1-0.6,1.4-1c0.4-0.4,0.7-0.9,0.8-1.5c0.2-0.6,0.3-1.2,0.3-1.9c0-0.7-0.1-1.3-0.3-1.9c-0.2-0.6-0.5-1.1-0.8-1.5      c-0.4-0.4-0.8-0.8-1.4-1C-17.7,137.5-18.3,137.3-19.1,137.3"/>
			</g>
			<g transform="matrix(2.4262392,0,0,-2.4262392,625.28034,247.41054)">
				<path class="st11" d="M-19.1,138.8c0.2-0.1,0.5-0.1,0.7-0.2c0.2,0,0.6-0.1,1-0.1c0.5,0,0.9,0.1,1.2,0.2c0.4,0.1,0.7,0.4,1,0.6      c0.3,0.3,0.5,0.7,0.6,1.1c0.2,0.4,0.2,1,0.2,1.6c0,1-0.2,1.7-0.6,2.3c-0.4,0.6-1,0.9-1.8,0.9c-0.3,0-0.6-0.1-0.9-0.2      c-0.3-0.1-0.5-0.3-0.8-0.5c-0.2-0.2-0.4-0.5-0.5-0.8c-0.1-0.3-0.2-0.7-0.2-1.2C-19.1,142.6-19.1,138.8-19.1,138.8z M-21,146.6      c0.1,0,0.3,0,0.4,0.1c0.1,0,0.3,0,0.4,0c0.1,0,0.3,0,0.4,0c0.1,0,0.3,0,0.4-0.1c0,0,0-0.1,0-0.2c0-0.1,0-0.3,0.1-0.4      c0-0.1,0-0.3,0.1-0.4c0-0.1,0-0.2,0-0.3c0.1,0.2,0.3,0.4,0.5,0.6c0.2,0.2,0.4,0.3,0.6,0.5c0.2,0.1,0.5,0.3,0.8,0.3      c0.3,0.1,0.6,0.1,1,0.1c0.6,0,1.1-0.1,1.6-0.3c0.5-0.2,0.9-0.5,1.2-0.8c0.3-0.4,0.6-0.9,0.8-1.5c0.2-0.6,0.3-1.3,0.3-2.1      c0-1.6-0.4-2.9-1.3-3.8c-0.9-0.9-2.2-1.4-3.8-1.4c-0.3,0-0.6,0-0.8,0.1c-0.3,0-0.5,0.1-0.8,0.1v-3.6c-0.2,0-0.3,0-0.5-0.1      c-0.2,0-0.3,0-0.5,0c-0.1,0-0.3,0-0.5,0c-0.2,0-0.3,0-0.5,0.1C-21,133.6-21,146.6-21,146.6z"/>
			</g>
			<g transform="matrix(2.4262392,0,0,-2.4262392,660.73206,231.98451)">
				<path class="st11" d="M-19.1,138.8c-0.2,0-0.3,0.1-0.4,0.1c-0.1,0-0.2,0-0.3,0c-0.1,0-0.2,0-0.3,0c-0.1,0-0.2,0-0.4,0      c-0.6,0-1-0.1-1.4-0.3s-0.8-0.4-1-0.8c-0.3-0.3-0.5-0.7-0.6-1.2c-0.1-0.4-0.2-0.9-0.2-1.5c0-0.5,0.1-1,0.2-1.4      c0.1-0.4,0.4-0.7,0.6-1c0.3-0.2,0.6-0.4,0.9-0.5c0.4-0.1,0.8-0.2,1.2-0.2c0.3,0,0.6,0,0.9,0.1c0.3,0,0.6,0.1,0.8,0.2V138.8z       M-19.1,130.9c-0.3-0.1-0.5-0.1-0.8-0.1c-0.3,0-0.6-0.1-1-0.1c-0.7,0-1.3,0.1-1.9,0.2c-0.6,0.2-1.1,0.4-1.6,0.8      c-0.4,0.4-0.8,0.8-1.1,1.4c-0.3,0.6-0.4,1.3-0.4,2.2c0,0.8,0.1,1.4,0.4,2.1c0.2,0.6,0.6,1.2,1,1.6c0.5,0.5,1,0.8,1.6,1.1      c0.6,0.2,1.4,0.4,2.2,0.4c0.7,0,1.3,0,1.8-0.1c0.5-0.1,1-0.2,1.5-0.3v-12.8c-0.1,0-0.3,0-0.5-0.1c-0.2,0-0.3,0-0.5,0      c-0.1,0-0.3,0-0.5,0c-0.2,0-0.3,0-0.5,0.1C-19.1,127.2-19.1,130.9-19.1,130.9z"/>
			</g>
			<g transform="matrix(2.4262392,0,0,-2.4262392,668.29513,228.42571)">
				<path class="st11" d="M-19.1,138.8c0.1,0,0.3,0,0.5,0.1c0.2,0,0.3,0,0.5,0c0.1,0,0.3,0,0.5,0c0.2,0,0.3,0,0.5-0.1v-5.1      c0-0.6,0.1-1.1,0.2-1.4c0.1-0.4,0.3-0.7,0.5-0.9c0.2-0.2,0.5-0.4,0.8-0.5c0.3-0.1,0.7-0.1,1.1-0.1c0.6,0,1.2,0.1,1.6,0.2v7.8      c0.1,0,0.3,0,0.5,0.1c0.2,0,0.3,0,0.5,0c0.1,0,0.3,0,0.5,0c0.2,0,0.3,0,0.5-0.1v-9c-0.4-0.1-1-0.2-1.6-0.3      c-0.6-0.1-1.2-0.2-1.9-0.2c-0.6,0-1.2,0.1-1.7,0.2c-0.5,0.1-1,0.3-1.4,0.6c-0.4,0.3-0.7,0.8-1,1.3c-0.2,0.6-0.4,1.3-0.4,2.3      C-19.1,133.6-19.1,138.8-19.1,138.8z"/>
			</g>
			<g transform="matrix(2.4262392,0,0,-2.4262392,704.36191,240.43025)">
				<path class="st11" d="M-19.1,138.8c-0.2,0-0.4,0-0.7,0.1c-0.3,0-0.5,0-0.7,0c-0.8,0-1.4-0.1-1.8-0.4c-0.4-0.3-0.6-0.7-0.6-1.3      c0-0.4,0.1-0.6,0.2-0.9c0.1-0.2,0.3-0.4,0.5-0.5c0.2-0.1,0.4-0.2,0.7-0.2c0.2,0,0.5,0,0.7,0c0.3,0,0.6,0,0.9,0      c0.3,0,0.6,0.1,0.8,0.1C-19.1,135.8-19.1,138.8-19.1,138.8z M-19.1,140.5c0,0.7-0.2,1.2-0.6,1.5c-0.4,0.3-0.9,0.4-1.6,0.4      c-0.4,0-0.9,0-1.2-0.1c-0.4-0.1-0.8-0.2-1.1-0.3c-0.2,0.4-0.4,0.9-0.4,1.4c0.4,0.1,0.9,0.2,1.4,0.3c0.5,0.1,1,0.1,1.5,0.1      c1.3,0,2.2-0.3,2.9-0.8c0.7-0.6,1-1.4,1-2.6v-5.8c-0.4-0.1-1-0.2-1.6-0.3c-0.6-0.1-1.3-0.2-1.9-0.2c-0.6,0-1.2,0.1-1.7,0.2      c-0.5,0.1-0.9,0.3-1.3,0.5c-0.3,0.2-0.6,0.6-0.8,0.9c-0.2,0.4-0.3,0.8-0.3,1.4c0,0.5,0.1,1,0.3,1.4c0.2,0.4,0.5,0.7,0.9,1      c0.4,0.3,0.8,0.5,1.3,0.6c0.5,0.1,1,0.2,1.5,0.2c0.4,0,0.7,0,1,0c0.3,0,0.5,0,0.6-0.1C-19.1,140.2-19.1,140.5-19.1,140.5z"/>
			</g>
			<g transform="matrix(2.4262392,0,0,-2.4262392,712.33938,246.99808)">
				<path class="st11" d="M-19.1,138.8c0.3-0.1,0.7-0.2,1.1-0.3c0.4-0.1,0.8-0.1,1.2-0.1c0.3,0,0.6,0,0.8,0.1      c0.3,0.1,0.5,0.2,0.7,0.3c0.2,0.1,0.4,0.3,0.5,0.4c0.1,0.2,0.2,0.4,0.2,0.6c0,0.2,0,0.4-0.1,0.6c-0.1,0.2-0.2,0.3-0.4,0.4      c-0.2,0.1-0.3,0.2-0.5,0.3c-0.2,0.1-0.4,0.2-0.7,0.2l-0.7,0.2c-0.8,0.3-1.4,0.6-1.8,1c-0.4,0.4-0.5,0.9-0.5,1.5      c0,0.8,0.3,1.5,0.9,2c0.6,0.5,1.5,0.7,2.7,0.7c0.5,0,1,0,1.4-0.1c0.5-0.1,0.9-0.2,1.2-0.3c0-0.2-0.1-0.5-0.1-0.7      c-0.1-0.2-0.2-0.5-0.3-0.7c-0.3,0.1-0.6,0.2-1,0.3c-0.4,0.1-0.8,0.1-1.2,0.1c-0.5,0-0.9-0.1-1.2-0.2c-0.4-0.2-0.5-0.4-0.5-0.8      c0-0.2,0-0.4,0.1-0.5c0.1-0.1,0.2-0.3,0.4-0.4c0.2-0.1,0.3-0.2,0.5-0.3c0.2-0.1,0.4-0.1,0.6-0.2l0.8-0.3      c0.3-0.1,0.6-0.2,0.9-0.3c0.3-0.1,0.5-0.3,0.7-0.5c0.2-0.2,0.4-0.4,0.5-0.7c0.1-0.3,0.2-0.6,0.2-1c0-0.4-0.1-0.9-0.3-1.2      c-0.2-0.4-0.5-0.7-0.8-0.9c-0.3-0.3-0.8-0.5-1.3-0.6c-0.5-0.1-1-0.2-1.6-0.2c-0.6,0-1.1,0-1.6,0.1c-0.5,0.1-0.9,0.2-1.3,0.3      c0,0.2,0.1,0.5,0.2,0.7C-19.3,138.3-19.2,138.5-19.1,138.8"/>
			</g>
			<g transform="matrix(2.4262392,0,0,-2.4262392,733.04539,232.12912)">
				<path class="st11" d="M-19.1,138.8h-1.5l-0.1,0.3l3.2,3.5h0.2v-2.3h2.4c0.1-0.2,0.1-0.4,0.1-0.7c0-0.1,0-0.3,0-0.4      c0-0.1,0-0.2-0.1-0.4h-2.4v-4.3c0-0.5,0-0.9,0.1-1.2c0-0.3,0.1-0.5,0.2-0.7c0.1-0.2,0.3-0.3,0.4-0.3c0.2-0.1,0.4-0.1,0.7-0.1      c0.2,0,0.4,0,0.6,0c0.2,0,0.4,0.1,0.5,0.1c0.1-0.2,0.1-0.5,0.2-0.7c0-0.3,0-0.5,0-0.7c-0.3-0.1-0.5-0.1-0.8-0.1      c-0.3,0-0.6,0-0.9,0c-0.9,0-1.6,0.2-2.1,0.6c-0.5,0.4-0.8,1.1-0.8,2.1C-19.1,133.5-19.1,138.8-19.1,138.8z"/>
			</g>
			<text class="st11 st12 st13" transform="matrix(0.8066 0 0 0.8066 696.7062 -114.8611)">®</text>
		</g>
	</g>
</g>
<path class="st0" d="M26.7,9.1h277.4c5.5,0,10,4.5,10,10v277.4c0,5.5-4.5,10-10,10H26.7c-5.5,0-10-4.5-10-10V19.1  C16.7,13.6,21.2,9.1,26.7,9.1z"/>
<path class="st1" d="M28.6,11.2h273.5c5.4,0,9.8,4.4,9.8,9.8v273.5c0,5.4-4.4,9.8-9.8,9.8H28.6c-5.4,0-9.8-4.4-9.8-9.8V21  C18.8,15.6,23.2,11.2,28.6,11.2z"/>
<rect class="st2" height="61.6" width="330.8" x="0" y="141"/>
<path class="st3" d="M236.3,268.8l-14.2-7.5l-14.2,7.5l2.8-15.8l-11.5-11.2l15.9-2.3l7.1-14.4l7.1,14.4l15.9,2.3l-11.5,11.2  L236.3,268.8z"/>
<path class="st3" d="M122.9,268.8l-14.2-7.5l-14.2,7.5l2.8-15.8l-11.5-11.2l15.9-2.3l7.1-14.4l7.1,14.4l15.9,2.3l-11.5,11.2  L122.9,268.8z"/>
<path class="st3" d="M179.6,268.8l-14.2-7.5l-14.2,7.5l2.8-15.8l-11.5-11.2l15.9-2.3l7.1-14.4l7.1,14.4l15.9,2.3l-11.5,11.2  L179.6,268.8z"/>
<path class="st3" d="M293.1,268.8l-14.2-7.5l-14.2,7.5l2.8-15.8l-11.5-11.2l15.9-2.3l7.1-14.4l7.1,14.4l15.9,2.3l-11.5,11.2  L293.1,268.8z"/>
<path class="st3" d="M66.1,268.8l-14.2-7.5l-14.2,7.5l2.8-15.8L29,241.7l15.9-2.3l7.1-14.4l7.1,14.4l15.9,2.3l-11.5,11.2L66.1,268.8  z"/>
<g class="st14">
	<path class="st1" d="M98.6,155.6h16.3c0.2,0.8,0.2,1.6,0.2,2.4c0,0.9-0.1,1.7-0.2,2.5h-10.5v6.2h8.3c0.2,0.9,0.2,1.7,0.2,2.5   c0,0.9-0.1,1.7-0.2,2.5h-8.3v7.6h10.8c0.2,0.8,0.2,1.6,0.2,2.4c0,0.9-0.1,1.7-0.2,2.5H98.6V155.6z"/>
	<path class="st1" d="M124,169.3l-5.2-13.7c0.5-0.1,1.1-0.1,1.6-0.2s1,0,1.5,0c1,0,2,0.1,3,0.2l4.6,13.8l-5.7,14.9   c-0.7,0.1-1.2,0.2-1.7,0.2c-0.5,0-0.9,0.1-1.4,0.1c-0.5,0-1,0-1.4-0.1c-0.5,0-1-0.1-1.6-0.2L124,169.3z M129.8,169.4l4.5-13.8   c1-0.2,2-0.2,3-0.2c0.5,0,1,0,1.5,0s1,0.1,1.6,0.2l-5.1,13.7l6.2,15c-0.6,0.1-1.2,0.1-1.6,0.2c-0.5,0-0.9,0.1-1.4,0.1   c-0.5,0-0.9,0-1.4-0.1c-0.5,0-1-0.1-1.7-0.2L129.8,169.4z"/>
	<path class="st1" d="M145.1,155.5c1.2-0.1,2.5-0.2,3.7-0.3c1.3-0.1,2.5-0.1,3.8-0.1c1.3,0,2.7,0.1,4.1,0.4c1.4,0.3,2.6,0.8,3.7,1.5   c1.1,0.7,2,1.8,2.7,3.1c0.7,1.3,1,3,1,5.1s-0.3,3.8-1,5.1c-0.7,1.3-1.6,2.3-2.7,3.1c-1.1,0.7-2.3,1.3-3.7,1.5   c-1.3,0.3-2.7,0.4-4,0.4c-0.3,0-0.7,0-1,0c-0.3,0-0.6,0-0.9-0.1v9.2c-0.5,0.1-1,0.1-1.5,0.2c-0.5,0-0.9,0-1.4,0c-0.4,0-0.9,0-1.4,0   c-0.5,0-1-0.1-1.6-0.2V155.5z M151,170.3c0.3,0.1,0.6,0.1,0.9,0.1c0.3,0,0.6,0,1,0c0.7,0,1.3-0.1,2-0.3s1.2-0.5,1.7-0.9   c0.5-0.4,0.9-0.9,1.2-1.6c0.3-0.7,0.4-1.5,0.4-2.4c0-1-0.1-1.8-0.4-2.5s-0.7-1.2-1.2-1.6c-0.5-0.4-1.1-0.7-1.7-0.9s-1.3-0.3-2-0.3   c-0.3,0-0.6,0-0.8,0c-0.3,0-0.6,0-1.1,0.1V170.3z"/>
	<path class="st1" d="M168.4,155.6h16.3c0.2,0.8,0.2,1.6,0.2,2.4c0,0.9-0.1,1.7-0.2,2.5h-10.5v6.2h8.3c0.2,0.9,0.2,1.7,0.2,2.5   c0,0.9-0.1,1.7-0.2,2.5h-8.3v7.6H185c0.2,0.8,0.2,1.6,0.2,2.4c0,0.9-0.1,1.7-0.2,2.5h-16.6V155.6z"/>
	<path class="st1" d="M189.9,155.6c1.2-0.1,2.3-0.2,3.3-0.3s2.2-0.1,3.4-0.1c1.5,0,2.9,0.1,4.3,0.4c1.4,0.3,2.7,0.7,3.9,1.4   s2.1,1.6,2.8,2.8c0.7,1.2,1.1,2.6,1.1,4.4c0,1.1-0.1,2-0.4,2.8c-0.3,0.8-0.6,1.5-1,2.1c-0.4,0.6-0.9,1.1-1.3,1.6   c-0.5,0.4-0.9,0.8-1.4,1.1l-0.7,0.4l7,12.2c-0.5,0.1-1.1,0.1-1.7,0.2c-0.6,0.1-1.2,0.1-1.8,0.1c-1,0-2-0.1-3-0.2l-7.5-13.4l1-0.5   c0.4-0.2,0.8-0.4,1.4-0.7c0.5-0.3,1-0.7,1.5-1.1c0.5-0.4,0.9-1,1.3-1.6c0.3-0.6,0.5-1.4,0.5-2.2c0-1.7-0.5-2.9-1.4-3.7   s-2.2-1.2-3.7-1.2c-0.6,0-1.1,0-1.6,0.1v24.3c-0.5,0.1-1,0.1-1.4,0.1c-0.5,0-0.9,0.1-1.4,0.1s-0.9,0-1.4,0c-0.5,0-1-0.1-1.6-0.2   V155.6z"/>
	<path class="st1" d="M219.7,160.6h-7.2c-0.2-0.8-0.2-1.6-0.2-2.5c0-0.8,0.1-1.6,0.2-2.4h20.2c0.2,0.8,0.2,1.6,0.2,2.4   c0,0.9-0.1,1.7-0.2,2.5h-7.2v23.8c-0.5,0.1-1,0.1-1.4,0.1c-0.5,0-0.9,0.1-1.4,0.1s-0.9,0-1.5,0c-0.5,0-1-0.1-1.6-0.2V160.6z"/>
</g>
<g transform="translate(-1086.64,102.45642)">
	<g transform="matrix(1.2397708,0,0,1.2397708,504.19692,99.467457)">
		<rect class="st6" height="54.8" width="206.8" x="495.5" y="-117.5"/>
		<g transform="matrix(2.4262392,0,0,-2.4262392,580.95999,237.90454)">
			<path class="st7" d="M-19.1,138.8l-0.8-0.8l-7.6-7.5c-0.2-0.2-0.5-0.2-0.7,0l-1.5,1.5c-0.2,0.2-0.2,0.5,0,0.7l6.2,6.2     C-23.4,138.8-19.1,138.8-19.1,138.8z"/>
		</g>
		<g transform="matrix(2.4262392,0,0,-2.4262392,580.95999,237.90454)">
			<path class="st8" d="M-19.1,138.8l3.4-3.4c0.2-0.2,0.2-0.5,0-0.7l-1.5-1.5c-0.2-0.2-0.5-0.2-0.7,0l-5.5,5.5     C-23.4,138.8-19.1,138.8-19.1,138.8z"/>
		</g>
		<g transform="matrix(2.4262392,0,0,-2.4262392,553.68858,241.6885)">
			<path class="st9" d="M-19.1,138.8l0.8,0.8l7.4,7.4c0.2,0.2,0.5,0.2,0.7,0l1.5-1.4c0.2-0.2,0.2-0.5,0-0.7l-6-6     C-14.8,138.8-19.1,138.8-19.1,138.8z"/>
		</g>
		<g transform="matrix(2.4262392,0,0,-2.4262392,553.67911,241.70961)">
			<path class="st10" d="M-19.1,138.8l-3.4,3.4c-0.2,0.2-0.2,0.5,0,0.7l1.5,1.5c0.2,0.2,0.5,0.2,0.7,0l5.5-5.5     C-14.8,138.8-19.1,138.8-19.1,138.8z"/>
		</g>
		<g transform="matrix(2.4262392,0,0,-2.4262392,606.99717,248.15904)">
			<path class="st11" d="M-19.1,138.8c0.9,0,1.5,0.3,1.9,0.9c0.4,0.6,0.6,1.4,0.6,2.5c0,1.1-0.2,1.9-0.6,2.5     c-0.4,0.6-1.1,0.9-1.9,0.9s-1.5-0.3-1.9-0.9c-0.4-0.6-0.6-1.4-0.6-2.5c0-1.1,0.2-1.9,0.6-2.5C-20.6,139.1-20,138.8-19.1,138.8      M-19.1,137.3c-0.8,0-1.4,0.1-2,0.4c-0.6,0.2-1,0.6-1.4,1c-0.4,0.4-0.7,1-0.8,1.5c-0.2,0.6-0.3,1.2-0.3,1.9     c0,0.7,0.1,1.3,0.3,1.9c0.2,0.6,0.5,1.1,0.8,1.5c0.4,0.4,0.8,0.8,1.4,1c0.6,0.3,1.2,0.4,2,0.4c0.8,0,1.4-0.1,2-0.4     c0.6-0.3,1-0.6,1.4-1c0.4-0.4,0.7-0.9,0.8-1.5c0.2-0.6,0.3-1.2,0.3-1.9c0-0.7-0.1-1.3-0.3-1.9c-0.2-0.6-0.5-1.1-0.8-1.5     c-0.4-0.4-0.8-0.8-1.4-1C-17.7,137.5-18.3,137.3-19.1,137.3"/>
		</g>
		<g transform="matrix(2.4262392,0,0,-2.4262392,625.28034,247.41054)">
			<path class="st11" d="M-19.1,138.8c0.2-0.1,0.5-0.1,0.7-0.2c0.2,0,0.6-0.1,1-0.1c0.5,0,0.9,0.1,1.2,0.2c0.4,0.1,0.7,0.4,1,0.6     c0.3,0.3,0.5,0.7,0.6,1.1c0.2,0.4,0.2,1,0.2,1.6c0,1-0.2,1.7-0.6,2.3c-0.4,0.6-1,0.9-1.8,0.9c-0.3,0-0.6-0.1-0.9-0.2     c-0.3-0.1-0.5-0.3-0.8-0.5c-0.2-0.2-0.4-0.5-0.5-0.8c-0.1-0.3-0.2-0.7-0.2-1.2C-19.1,142.6-19.1,138.8-19.1,138.8z M-21,146.6     c0.1,0,0.3,0,0.4,0.1c0.1,0,0.3,0,0.4,0c0.1,0,0.3,0,0.4,0c0.1,0,0.3,0,0.4-0.1c0,0,0-0.1,0-0.2c0-0.1,0-0.3,0.1-0.4     c0-0.1,0-0.3,0.1-0.4c0-0.1,0-0.2,0-0.3c0.1,0.2,0.3,0.4,0.5,0.6c0.2,0.2,0.4,0.3,0.6,0.5c0.2,0.1,0.5,0.3,0.8,0.3     c0.3,0.1,0.6,0.1,1,0.1c0.6,0,1.1-0.1,1.6-0.3c0.5-0.2,0.9-0.5,1.2-0.8c0.3-0.4,0.6-0.9,0.8-1.5c0.2-0.6,0.3-1.3,0.3-2.1     c0-1.6-0.4-2.9-1.3-3.8c-0.9-0.9-2.2-1.4-3.8-1.4c-0.3,0-0.6,0-0.8,0.1c-0.3,0-0.5,0.1-0.8,0.1v-3.6c-0.1,0-0.3,0-0.5-0.1     c-0.2,0-0.3,0-0.5,0c-0.1,0-0.3,0-0.5,0c-0.2,0-0.3,0-0.5,0.1C-21,133.6-21,146.6-21,146.6z"/>
		</g>
		<g transform="matrix(2.4262392,0,0,-2.4262392,660.73206,231.98451)">
			<path class="st11" d="M-19.1,138.8c-0.2,0-0.3,0.1-0.4,0.1c-0.1,0-0.2,0-0.3,0c-0.1,0-0.2,0-0.3,0c-0.1,0-0.2,0-0.4,0     c-0.6,0-1-0.1-1.4-0.3c-0.4-0.2-0.8-0.4-1-0.8c-0.3-0.3-0.5-0.7-0.6-1.2c-0.1-0.4-0.2-0.9-0.2-1.5c0-0.5,0.1-1,0.2-1.4     c0.1-0.4,0.4-0.7,0.6-1c0.3-0.2,0.6-0.4,0.9-0.5c0.4-0.1,0.8-0.2,1.2-0.2c0.3,0,0.6,0,0.9,0.1c0.3,0,0.6,0.1,0.8,0.2V138.8z      M-19.1,130.9c-0.3-0.1-0.5-0.1-0.8-0.1c-0.3,0-0.6-0.1-1-0.1c-0.7,0-1.3,0.1-1.9,0.2c-0.6,0.2-1.1,0.4-1.6,0.8     c-0.4,0.4-0.8,0.8-1.1,1.4c-0.3,0.6-0.4,1.3-0.4,2.2c0,0.8,0.1,1.4,0.4,2.1c0.2,0.6,0.6,1.2,1,1.6c0.5,0.5,1,0.8,1.6,1.1     c0.6,0.2,1.4,0.4,2.2,0.4c0.7,0,1.3,0,1.8-0.1c0.5-0.1,1-0.2,1.5-0.3v-12.8c-0.1,0-0.3,0-0.5-0.1c-0.2,0-0.3,0-0.5,0     c-0.1,0-0.3,0-0.5,0c-0.2,0-0.3,0-0.5,0.1C-19.1,127.2-19.1,130.9-19.1,130.9z"/>
		</g>
		<g transform="matrix(2.4262392,0,0,-2.4262392,668.29513,228.42571)">
			<path class="st11" d="M-19.1,138.8c0.1,0,0.3,0,0.5,0.1c0.2,0,0.3,0,0.5,0c0.1,0,0.3,0,0.5,0c0.2,0,0.3,0,0.5-0.1v-5.1     c0-0.6,0.1-1.1,0.2-1.4c0.1-0.4,0.3-0.7,0.5-0.9c0.2-0.2,0.5-0.4,0.8-0.5c0.3-0.1,0.7-0.1,1.1-0.1c0.6,0,1.2,0.1,1.6,0.2v7.8     c0.1,0,0.3,0,0.5,0.1c0.2,0,0.3,0,0.5,0c0.1,0,0.3,0,0.5,0c0.2,0,0.3,0,0.5-0.1v-9c-0.4-0.1-1-0.2-1.6-0.3     c-0.6-0.1-1.2-0.2-1.9-0.2c-0.6,0-1.2,0.1-1.7,0.2c-0.5,0.1-1,0.3-1.4,0.6c-0.4,0.3-0.7,0.8-1,1.3c-0.2,0.6-0.4,1.3-0.4,2.3     C-19.1,133.6-19.1,138.8-19.1,138.8z"/>
		</g>
		<g transform="matrix(2.4262392,0,0,-2.4262392,704.36191,240.43025)">
			<path class="st11" d="M-19.1,138.8c-0.2,0-0.4,0-0.7,0.1c-0.3,0-0.5,0-0.7,0c-0.8,0-1.4-0.1-1.8-0.4c-0.4-0.3-0.6-0.7-0.6-1.3     c0-0.4,0.1-0.6,0.2-0.9c0.1-0.2,0.3-0.4,0.5-0.5c0.2-0.1,0.4-0.2,0.7-0.2c0.2,0,0.5,0,0.7,0c0.3,0,0.6,0,0.9,0     c0.3,0,0.6,0.1,0.8,0.1C-19.1,135.8-19.1,138.8-19.1,138.8z M-19.1,140.5c0,0.7-0.2,1.2-0.6,1.5c-0.4,0.3-0.9,0.4-1.6,0.4     c-0.4,0-0.9,0-1.2-0.1c-0.4-0.1-0.8-0.2-1.1-0.3c-0.2,0.4-0.4,0.9-0.4,1.4c0.4,0.1,0.9,0.2,1.4,0.3c0.5,0.1,1,0.1,1.5,0.1     c1.3,0,2.2-0.3,2.9-0.8c0.7-0.6,1-1.4,1-2.6v-5.8c-0.4-0.1-1-0.2-1.6-0.3c-0.6-0.1-1.3-0.2-1.9-0.2c-0.6,0-1.2,0.1-1.7,0.2     c-0.5,0.1-0.9,0.3-1.3,0.5c-0.3,0.2-0.6,0.6-0.8,0.9s-0.3,0.8-0.3,1.4c0,0.5,0.1,1,0.3,1.4c0.2,0.4,0.5,0.7,0.9,1     c0.4,0.3,0.8,0.5,1.3,0.6c0.5,0.1,1,0.2,1.5,0.2c0.4,0,0.7,0,1,0c0.3,0,0.5,0,0.6-0.1C-19.1,140.2-19.1,140.5-19.1,140.5z"/>
		</g>
		<g transform="matrix(2.4262392,0,0,-2.4262392,712.33938,246.99808)">
			<path class="st11" d="M-19.1,138.8c0.3-0.1,0.7-0.2,1.1-0.3c0.4-0.1,0.8-0.1,1.2-0.1c0.3,0,0.6,0,0.8,0.1     c0.3,0.1,0.5,0.2,0.7,0.3c0.2,0.1,0.4,0.3,0.5,0.4c0.1,0.2,0.2,0.4,0.2,0.6c0,0.2,0,0.4-0.1,0.6c-0.1,0.2-0.2,0.3-0.4,0.4     c-0.2,0.1-0.3,0.2-0.5,0.3c-0.2,0.1-0.4,0.2-0.7,0.2l-0.7,0.2c-0.8,0.3-1.4,0.6-1.8,1c-0.4,0.4-0.5,0.9-0.5,1.5     c0,0.8,0.3,1.5,0.9,2c0.6,0.5,1.5,0.7,2.7,0.7c0.5,0,1,0,1.4-0.1c0.5-0.1,0.9-0.2,1.2-0.3c0-0.2-0.1-0.5-0.1-0.7     c-0.1-0.2-0.2-0.5-0.3-0.7c-0.3,0.1-0.6,0.2-1,0.3c-0.4,0.1-0.8,0.1-1.2,0.1c-0.5,0-0.9-0.1-1.2-0.2c-0.4-0.2-0.5-0.4-0.5-0.8     c0-0.2,0-0.4,0.1-0.5c0.1-0.1,0.2-0.3,0.4-0.4c0.2-0.1,0.3-0.2,0.5-0.3c0.2-0.1,0.4-0.1,0.6-0.2l0.8-0.3c0.3-0.1,0.6-0.2,0.9-0.3     c0.3-0.1,0.5-0.3,0.7-0.5c0.2-0.2,0.4-0.4,0.5-0.7c0.1-0.3,0.2-0.6,0.2-1c0-0.4-0.1-0.9-0.3-1.2c-0.2-0.4-0.5-0.7-0.8-0.9     c-0.3-0.3-0.8-0.5-1.3-0.6c-0.5-0.1-1-0.2-1.6-0.2c-0.6,0-1.1,0-1.6,0.1c-0.5,0.1-0.9,0.2-1.3,0.3c0,0.2,0.1,0.5,0.2,0.7     C-19.3,138.3-19.2,138.5-19.1,138.8"/>
		</g>
		<g transform="matrix(2.4262392,0,0,-2.4262392,733.04539,232.12912)">
			<path class="st11" d="M-19.1,138.8h-1.5l-0.1,0.3l3.2,3.5h0.2v-2.3h2.4c0.1-0.2,0.1-0.4,0.1-0.7c0-0.1,0-0.3,0-0.4     c0-0.1,0-0.2-0.1-0.4h-2.4v-4.3c0-0.5,0-0.9,0.1-1.2c0-0.3,0.1-0.5,0.2-0.7c0.1-0.2,0.3-0.3,0.4-0.3c0.2-0.1,0.4-0.1,0.7-0.1     c0.2,0,0.4,0,0.6,0c0.2,0,0.4,0.1,0.5,0.1c0.1-0.2,0.1-0.5,0.2-0.7c0-0.3,0-0.5,0-0.7c-0.3-0.1-0.5-0.1-0.8-0.1     c-0.3,0-0.6,0-0.9,0c-0.9,0-1.6,0.2-2.1,0.6c-0.5,0.4-0.8,1.1-0.8,2.1C-19.1,133.5-19.1,138.8-19.1,138.8z"/>
		</g>
		<text class="st11 st12 st13" transform="matrix(0.8066 0 0 0.8066 696.7061 -114.8611)">®</text>
	</g>
</g>
<path class="st15" d="M0,202.6h7.6v7.6L0,202.6z"/>
<path class="st15" d="M330.8,202.6h-7.6v7.6L330.8,202.6z"/>
</svg>