<?xml version="1.0" encoding="utf-8"?>
<!-- Generator: Adobe Illustrator 21.0.0, SVG Export Plug-In . SVG Version: 6.00 Build 0)  -->
<svg version="1.1" id="Layer_1" xmlns="http://www.w3.org/2000/svg" xmlns:xlink="http://www.w3.org/1999/xlink" x="0px" y="0px"
	 viewBox="0 0 512 512" style="enable-background:new 0 0 512 512;" xml:space="preserve">
<g>
	<path fill="#FCEBCD" d="M470.8,0H41.2C18.4,0,0,18.4,0,41.2v429.7C0,493.6,18.4,512,41.2,512h429.7c22.7,0,41.2-18.4,41.2-41.2V41.2
		C512,18.4,493.6,0,470.8,0z M470.8,471C184.3,471,41,470.9,41,470.8C41,184.3,41.1,41,41.2,41C327.7,41,471,41.1,471,41.2
		C471,327.7,470.9,471,470.8,471z M75.9,191.9h76v244.4h-76V191.9z M113.9,158.5c24.3,0,44-19.7,44-44c0-24.3-19.7-44-44-44
		c-24.3,0-44,19.7-44,44v0C69.8,138.8,89.5,158.5,113.9,158.5z M275.4,315.4c0-31.9,6.1-62.7,45.6-62.7c38.9,0,39.5,36.4,39.5,64.8
		v118.8h75.9v-134c0-65.8-14.2-116.4-91.1-116.4c-36.9,0-61.7,20.3-71.9,39.5h-1v-33.4h-72.9v244.4h75.9V315.4z"/>
</g>
</svg>
