<?xml version="1.0" encoding="utf-8"?>
<!-- Generator: Adobe Illustrator 24.1.1, SVG Export Plug-In . SVG Version: 6.00 Build 0)  -->
<svg version="1.1" id="Layer_1" xmlns="http://www.w3.org/2000/svg" xmlns:xlink="http://www.w3.org/1999/xlink" x="0px" y="0px"
	 viewBox="0 0 512 512" style="enable-background:new 0 0 512 512;" xml:space="preserve">
<g>
	<path  fill="#FCEBCD" d="M266.8,0c-3.3,0-6.7,0.2-10.3,0.4c-90.2,7.1-66.2,102.6-67.6,134.4c-1.7,23.2-6.4,41.7-22.4,64.4
		c-18.9,22.4-45.4,58.7-58,96.4c-5.9,17.7-8.7,36-6.1,53.2l-2.4,2.8c-5.5,5.8-9.6,12.8-14.1,17.9c-4.2,4.2-10.3,5.7-17,8.5
		c-6.7,2.9-14.1,5.7-18.4,14.6c-1.9,4-2.9,8.3-2.8,12.8c0,4.2,0.6,8.5,1.2,11.4c1.3,8.5,2.5,15.5,0.8,20.7
		c-5.3,14.5-5.9,24.4-2.2,31.7c3.7,7.2,11.4,10,20,12.8c17.3,4.2,40.7,2.9,59.2,12.7c19.7,10,39.8,14.3,55.8,10.1
		c11.1-2.5,20.7-9.9,25.7-20.2c12.5-0.1,26.2-5.8,48.2-7.2c14.9-1.3,33.6,5.7,55,4.2c0.6,2.9,1.3,4.2,2.5,7.2v0.1
		c8.3,16.6,23.7,24.1,40.3,22.8c16.4-1.3,33.9-11.4,48.1-27.9c13.5-16.2,35.9-23.1,50.7-32c7.4-4.3,13.4-10,13.8-18.2
		c0.5-8.5-4.2-17.3-15.2-29.3v-2.1l-0.1-0.1c-3.7-4.2-5.3-11.4-7.2-19.7c-1.8-8.6-3.8-16.7-10.5-22.3l-4.1-2.8l-4-1.4
		c9.2-27.3,5.6-54.3-3.8-78.8c-11.3-30.1-31.2-56.3-46.3-74.3c-17-21.4-33.7-41.7-33.3-71.8C342.9,85.1,347.4,0.2,266.8,0L266.8,0z
		 M278,72.6h0.3c4.5,0,8.4,1.3,12.4,4.2c4.1,2.9,7.1,7.1,9.3,11.4c2.2,5.5,3.4,9.7,3.6,15.4l0.1-1.2v2.2l-0.1-0.5l-0.1-0.5
		c0,5.2-1.1,10.4-3.1,15.1c-1,2.7-2.5,5.1-4.6,7.2L294,125c-2.2-1-4.2-1.3-6.1-2.8c-1.5-0.6-3.1-1.1-4.7-1.4l3.9-4.2
		c1.1-2.7,1.7-5.6,1.8-8.6v-0.4c0.1-2.8-0.4-5.7-1.3-8.5c-0.9-2.8-2.1-4.3-3.8-7.1c-1.8-1.4-3.6-2.8-5.8-2.8h-0.3
		c-2,0-3.8,0.6-5.6,2.8c-2,2-3.5,4.4-4.3,7.1c-1.2,2.8-1.8,5.6-1.9,8.5v0.4c0,1.9,0.2,3.8,0.4,5.7c-4.2-1.4-9.3-2.9-13-4.3l-0.3-4.2
		v-0.4c-0.1-5.6,0.9-11.2,3.2-16.4c1.7-4.7,4.9-8.7,9.2-11.3C269,74.2,273.4,72.7,278,72.6L278,72.6z M214.9,73.9h0.7
		c3,0,5.8,1,8.5,2.8c3.1,2.8,5.7,6.2,7.3,9.9c1.9,4.3,3,8.6,3.3,14.3v0.1c0.1,2.8,0.1,4.4-0.1,5.7v1.7l-1.7,0.5
		c-3.2,1.2-5.8,2.8-8.4,4.3c0.3-1.9,0.3-3.8,0.1-5.7v-0.3c-0.2-2.8-0.8-4.2-1.7-7.1c-0.7-2.2-1.9-4.2-3.6-5.7l-3.8-1.3H215
		c-1.5,0.1-2.7,0.8-3.9,2.8c-1.4,1.6-2.2,3.6-2.6,5.8c-0.6,2.2-0.8,4.7-0.5,7.1v0.2c0.3,2.9,0.7,4.4,1.7,7.2
		c0.9,2.8,2.1,4.3,3.5,5.7l0.7,0.5c-1.5,1.3-2.5,1.5-3.7,2.9l-2.8,1.5c-2.3-2.7-4.2-5.6-5.8-8.6c-2.1-4.5-3.1-9.3-3.3-14.3
		c-0.3-4.8,0.3-9.7,1.7-14.3c1.3-4.2,3.3-8.1,6.1-11.4C208.7,75.3,211.5,73.9,214.9,73.9L214.9,73.9z M244.1,110.3
		c7.1,0,15.6,1.3,25.9,8.5c6.3,4.3,11.2,5.8,22.5,9.9c5.5,2.9,8.7,5.8,10.2,8.6v-2.8c1.5,3.1,1.7,6.7,0.3,10
		c-2.7,6.7-11,13.8-22.7,18v0.1c-5.7,2.8-10.7,7.1-16.5,9.9c-5.9,2.8-12.6,6.2-21.6,5.7c-3.2,0.1-6.5-0.3-9.6-1.4
		c-2.3-1.2-4.7-2.7-6.8-4.2c-4.2-2.8-7.7-7.1-13.1-9.9v-0.1h-0.1c-8.6-5.2-13.2-10.9-14.7-15.2c-1.4-5.7-0.1-10,4.2-12.8
		c4.7-2.8,8.1-5.8,10.2-7.2c2.2-1.6,3.1-2.2,3.8-2.7h0.1v-0.1c3.6-4.3,9.2-10,17.9-12.8C237.1,110.9,240.5,110.3,244.1,110.3
		L244.1,110.3z M303.8,156c7.7,30.3,25.6,74.2,37.1,95.4c6.1,11.4,18.2,35.4,23.5,64.5c3.3-0.1,7,0.4,10.9,1.4
		c13.8-35.7-11.6-74-23.2-84.7c-4.8-4.2-5-7.1-2.7-7.1c12.6,11.3,29.1,33.5,35.1,58.7c2.7,11.4,3.4,23.6,0.5,35.7
		c1.4,0.6,2.8,1.3,4.3,1.4c22,11.4,30.2,20,26.2,32.8v-0.9h-3.8h-0.3c3.3-10-3.9-17.7-22.7-26.2c-19.5-8.5-35.1-7.2-37.8,9.9
		c-0.2,0.9-0.2,1.4-0.3,2.9c-1.5,0.5-3,1.1-4.5,1.3c-9.2,5.8-14.1,14.3-16.9,25.3c-2.7,11.4-3.6,24.7-4.3,39.9
		c-0.5,7.2-3.7,17.9-6.9,28.8c-32,22.9-76.4,32.8-114,7.2c-2.4-4.2-5.3-8-8.6-11.4c-1.6-2.7-3.6-5-5.9-7.1c3.9,0,7.2-0.7,9.9-1.4
		c3.1-1.5,5.5-4.1,6.7-7.1c2.2-5.7,0-14.8-7.4-24.8c-7.3-9.9-19.8-21.2-38.1-32.4c-13.5-8.5-21.1-18.6-24.6-29.8
		c-3.5-11.4-3-23.2-0.3-35.1c5.2-22.8,18.7-45.1,27.3-59c2.2-1.3,0.8,2.9-8.7,20.8c-8.4,16-24.3,53.2-2.6,82.1
		c0.9-21.1,5.5-41.9,13.8-61.3c12-27.2,37.2-74.7,39.2-112.4c1,0.8,4.6,2.9,6.2,4.3c4.6,2.8,8.1,7.1,12.6,9.9
		c4.5,4.2,10.2,7.2,18.7,7.2l2.3,0.1c8.8,0,15.6-2.8,21.2-5.7c6.2-2.9,11.2-7.2,15.8-8.6h0.1C291.5,168.1,299.4,162.3,303.8,156
		L303.8,156z M350.4,347c0.8,12.8,7.3,26.6,18.8,29.4c12.5,2.8,30.6-7.1,38.2-16.3l4.5-0.2c6.7-0.2,12.3,0.2,18.1,5.7l0.1,0.1
		c4.4,4.2,6.5,11.3,8.3,18.7c1.8,8.6,3.2,16.7,8.7,22.7c10.3,11.2,13.7,19.3,13.6,24.3c-0.3,5.6-4,8.4-10.7,12.7
		c-13.4,8.6-37.2,15.2-52.4,33.5c-13.2,15.7-29.2,24.3-43.4,25.4c-14.2,1.2-26.4-4.2-33.6-19.1l-0.1-0.1c-4.5-8.5-2.6-21.8,1.2-36
		c3.8-14.3,9.2-28.7,9.9-40.5c0.7-15.2,1.6-28.5,4.1-38.8c2.6-9.9,6.6-17,13.8-20.9L350.4,347L350.4,347z M119.7,348.1h0.3l3.3,0.3
		c8,1.2,15.1,7.1,21.8,16l19.4,35.5l0.1,0.1c5.2,11.3,16.1,22.7,25.3,34.9c9.3,12.7,16.4,24.1,15.6,33.5v0.2
		c-1.3,15.8-10.3,24.4-24,27.6c-13.8,2.8-32.4,0-51.1-9.9c-20.7-11.4-45.2-10-61-12.8c-7.8-1.4-13-4.3-15.4-8.6
		c-2.3-4.2-2.4-12.8,2.7-26.3v-0.1c2.5-7.2,0.7-16.1-0.6-23.9c-1.2-8.5-1.7-15.1,0.9-20c3.4-7.2,8.5-8.5,14.7-11.4
		c6.2-2.8,13.7-4.2,19.5-10h0.1v-0.1c5.4-5.6,9.5-12.7,14.3-17.8C109.6,350.9,113.7,348.1,119.7,348.1z M272.5,154.6
		c-9.3,4.2-20.2,11.4-31.8,11.4c-11.6,0-20.7-5.6-27.2-9.9c-3.3-2.9-6-5.7-8-7.2c-3.5-2.8-3.1-7.2-1.6-7.2c2.3,0.3,2.7,2.9,4.2,4.3
		c2.1,1.4,4.6,4.2,7.7,7.1c6.2,4.2,14.6,10,24.9,10c10.4,0,22.5-5.7,29.8-10c4.2-2.8,9.5-7.1,13.8-9.9c3.3-2.9,3.2-5.8,5.9-5.8
		c2.7,0.3,0.8,2.8-3.1,7.1C283.3,147.5,277.3,151.7,272.5,154.6L272.5,154.6z M249.4,120.7v-0.4l0.7-1.1c1.5-0.9,3.8-0.6,5.5,0.1
		c1.3,0,3.4,1.4,3.2,2.9l-2.9,1.4l-3-1.5L249.4,120.7L249.4,120.7z M237.6,120.7l-3.5,1.4l-3,1.5l-2.9-1.5l3.2-2.8
		c1.7-0.7,3.9-1,5.6-0.1l0.6,1.1L237.6,120.7L237.6,120.7z"/>
</g>
</svg>
