<?xml version="1.0" encoding="utf-8"?>
<!-- Generator: Adobe Illustrator 24.1.1, SVG Export Plug-In . SVG Version: 6.00 Build 0)  -->
<svg version="1.1" id="Layer_1" xmlns="http://www.w3.org/2000/svg" xmlns:xlink="http://www.w3.org/1999/xlink" x="0px" y="0px"
	 viewBox="0 0 512 512" style="enable-background:new 0 0 512 512;" xml:space="preserve">
<g>
	<path d="M448,117.3h-64c0-35.2-28.8-64-64-64H64c-35.2,0-64,28.8-64,64v149.3c0,35.2,28.8,64,64,64v64l64-64c0,35.2,28.8,64,64,64
		h170.7l64,64v-64H448c35.2,0,64-28.8,64-64V181.3C512,146.1,483.2,117.3,448,117.3z M64,288c-11.6,0-21.3-9.8-21.3-21.3V117.3
		C42.7,105.8,52.4,96,64,96h256c11.6,0,21.3,9.8,21.3,21.3v21.3H202.7c-29.4,0-53.3,23.9-53.3,53.3v96H64z M469.3,330.7
		c0,11.6-9.8,21.3-21.3,21.3H192c-11.6,0-21.3-9.8-21.3-21.3V192c0-17.6,14.4-32,32-32H448c11.6,0,21.3,9.8,21.3,21.3V330.7z"/>
</g>
</svg>
