<?xml version="1.0" encoding="utf-8"?>
<!-- Generator: Adobe Illustrator 24.1.1, SVG Export Plug-In . SVG Version: 6.00 Build 0)  -->
<svg version="1.1" id="Layer_1" xmlns="http://www.w3.org/2000/svg" xmlns:xlink="http://www.w3.org/1999/xlink" x="0px" y="0px"
	 viewBox="0 0 512 512" style="enable-background:new 0 0 512 512;" xml:space="preserve">
<g>
	<path fill="#FCEBCD"  d="M361,370.5l4.6,0.3c22.1,0,44.2-0.1,66.3,0.1c4.8,0,6.3-1.6,6-6.2c-0.3-6-0.1-12.1-0.1-19.5
		c25.1,18.4,49.3,36.3,74.2,54.6c-24.7,18.2-48.9,36-74.2,54.6c0-7,0-12.8,0-18.7c0-7.5,0-7.5-7.3-7.5c-141.2,0-282.4,0-423.6,0
		c-6.8,0-6.8,0-6.8-6.9c0-14.9,0.2-29.8-0.1-44.7c-0.1-4.8,1.5-5.9,6.1-5.9c75.9,0.1,151.8,0.3,227.8,0c38.9-0.1,69.6-16.2,90-49.8
		c36.7-60.6-1.6-139.9-71.8-150.1c-54.3-7.9-104.7,28.5-113.9,83.7c-1,5.7-1,11.6-1.6,18.6c8.9-1.2,16.9-2.3,26-3.5
		c-14.3,27.6-28,54.2-42,81.2c-21.4-22.1-42.5-43.8-63.1-65c5.2-0.9,12.1-1.9,18.8-3.3l3.1-3.6c-0.4-14.4,0.6-28.7,3.4-42.9
		l-0.2-1.8c-13.8-2.4-26.6-7.3-38.2-15.3c-28.3-19.6-43.2-56.1-36.2-89.4c7.6-36.3,34.9-63.3,70.3-70c22.9-4.3,44.2-0.2,63.9,11.9
		c3.5,2.1,5.6,2.5,7.9-1.3c1.3-2.2,3.3-4,5.7-6.6c2.9,11.6,5.6,22.4,8.2,33.2c0.9,3.6,1.6,7.3,2.7,10.9c1.1,3.9,0,5.6-4.1,5.4
		c-11.9-0.8-23.8-1.5-35.7-2.3c-2.9-0.2-5.8-0.5-9.6-0.9c2.9-3.7,5.6-7,8.5-10.7c-6.4-4.9-13.5-7.3-20.9-8.5
		c-35.6-5.8-67,21.5-66.3,57.6c0.5,27.7,23.9,52.4,51.4,54.7c3.6,0.3,4.8-1.5,6.2-4.2c19.5-37.5,48.9-64,88.9-77.7
		c92.6-31.9,189.2,25.3,207,118.9c8.8,46.1-1.2,88.2-29.2,125.9L361,369l0.2,1.5L361,370.5z"/>
</g>
</svg>
