<?xml version="1.0" encoding="utf-8"?>
<!-- Generator: Adobe Illustrator 24.1.1, SVG Export Plug-In . SVG Version: 6.00 Build 0)  -->
<svg version="1.1" id="Layer_1" xmlns="http://www.w3.org/2000/svg" xmlns:xlink="http://www.w3.org/1999/xlink" x="0px" y="0px"
	 viewBox="0 0 512 512" style="enable-background:new 0 0 512 512;" xml:space="preserve">
<g>
	<path fill="#FCEBCD" d="M512,256c0,141.4-114.6,256-256,256S0,397.4,0,256S114.6,0,256,0S512,114.6,512,256z M367.9,94.7
		c-26,0.9-48.7,15.2-65.6,35.1c-18.8,21.8-31.2,47.6-40.2,73.8c-16-13.1-28.3-30.2-54.1-37.6c-20.7-6.3-43-2.2-60.1,11
		c-8.8,6.8-15.1,16.2-18.4,26.8c-7.7,25.1,8.2,47.5,15.3,55.5l15.7,16.8c3.2,3.3,11.1,11.9,7.2,24.3c-4.1,13.5-20.2,22.2-36.9,17.1
		c-7.4-2.3-18.1-7.8-15.7-15.6c1-3.2,3.3-5.6,4.5-8.3c1.1-2.4,1.7-4.2,2-5.2c3-9.9-1.1-22.9-11.8-26.1c-9.9-3.1-20-0.7-24,12.1
		c-4.4,14.5,2.5,40.8,39.7,52.3c43.6,13.3,80.3-10.4,85.6-41.3c3.3-19.3-5.5-33.7-21.5-52.2l-13.1-14.5c-7.9-7.8-10.6-21.3-2.4-31.7
		c6.9-8.8,16.8-12.4,32.8-8.1c23.6,6.4,34,22.7,51.5,35.8c-7.3,23.7-12,47.4-16.3,68.8l-2.6,15.9c-12.5,65.5-22,101.5-46.8,122.2
		c-5,3.5-12.2,8.8-22.8,9.2c-5.7,0.1-7.6-3.7-7.6-5.5c-0.2-3.9,3.2-5.8,5.4-7.5c3.3-1.7,8.3-4.8,7.9-14.4
		c-0.3-11.3-9.8-21.2-23.3-20.7c-10.2,0.3-25.7,9.9-25.1,27.4c0.6,18.2,17.5,31.7,42.9,30.8c13.7-0.4,44-6,73.9-41.6
		c34.8-40.8,44.6-87.5,51.9-121.7l8.2-45.1c4.6,0.5,9.4,0.9,14.7,1c43.3,0.9,65-21.6,65.3-37.9c0.3-9.9-6.5-19.7-15.8-19.4
		c-8.2,0.3-15.3,5.9-17.2,14c-2,9.1,13.8,17.3,1.5,25.3c-8.8,5.6-24.5,9.7-46.6,6.4l4-22.3c8.3-42.2,18.3-94,56.8-95.2
		c2.8-0.2,13.1,0.1,13.3,6.8c0.1,2.2-0.4,2.9-3.1,8c-2.5,3.3-3.8,7.4-3.6,11.5c0.3,10.8,8.5,17.8,20.4,17.4
		c15.8-0.5,20.3-16,20.2-23.9C413.6,105.6,393.9,93.9,367.9,94.7L367.9,94.7z"/>
</g>
</svg>
