<?xml version="1.0" encoding="utf-8"?>
<!-- Generator: Adobe Illustrator 24.1.1, SVG Export Plug-In . SVG Version: 6.00 Build 0)  -->
<svg version="1.1" id="Layer_1" xmlns="http://www.w3.org/2000/svg" xmlns:xlink="http://www.w3.org/1999/xlink" x="0px" y="0px"
	 viewBox="0 0 512 512" style="enable-background:new 0 0 512 512;" xml:space="preserve">
<g>
	<path fill="#FCEBCD" d="M384,177.85c-9.4,4.1-19.52,6.9-30.15,8.13c10.85-6.4,19.15-16.53,23.1-28.6c-10.2,5.93-21.4,10.25-33.38,12.55
		c-10-10.48-23.85-16.38-38.33-16.32c-29.02,0-52.52,23.17-52.52,51.7c0,4.05,0.47,8,1.38,11.77c-42.08-1.97-81.35-21.6-108.25-54
		c-4.68,7.85-7.13,16.82-7.1,25.98c0,17.93,9.27,33.8,23.35,43.05c-8.33-0.28-16.48-2.5-23.8-6.5v0.65
		c0.18,24.77,17.8,46,42.15,50.7c-7.75,2.05-15.88,2.32-23.75,0.85c7.05,21.2,26.73,35.63,49.05,35.93
		c-18.68,14.4-41.63,22.17-65.23,22.13c-4.22,0-8.4-0.25-12.52-0.73c24.1,15.25,52,23.33,80.5,23.27
		c96.63,0,149.42-78.8,149.42-147.15l-0.17-6.7C368.05,197.3,376.95,188.25,384,177.85z"/>
	<path fill="#FCEBCD" d="M102.4,51.2c-28.28,0-51.2,22.92-51.2,51.2v307.2c0,28.27,22.92,51.2,51.2,51.2h307.2c28.3,0,51.2-22.92,51.2-51.2V102.4
		c0-28.28-22.9-51.2-51.2-51.2H102.4z M102.4,0h307.2C466.17,0,512,45.85,512,102.4v307.2c0,56.55-45.83,102.4-102.4,102.4H102.4
		C45.85,512,0,466.15,0,409.6V102.4C0,45.85,45.85,0,102.4,0z"/>
</g>
</svg>
